<svg width="56" height="56" viewBox="0 0 56 56" fill="none" xmlns="http://www.w3.org/2000/svg">
<path fill-rule="evenodd" clip-rule="evenodd" d="M37.0248 20.3636C32.7934 11.2397 15.7356 9.19008 18.5785 21.2231C20.3637 28.6281 23.6033 27.0413 24.9918 31.3388C25.4546 32.7273 25.2562 33.4545 24.8595 35.7025C24.2645 38.876 21.3554 40.8595 21.2893 45.2893C22.3471 51.5702 32.0661 51.5702 33.6529 46.5455C34.9091 41.124 32.7934 41.8512 33.124 36.8926C33.5207 30.6116 38.6116 24.4628 37.0248 20.3636ZM27.967 0C35.7025 0 42.7108 3.10744 47.8017 8.19835C52.8265 13.2231 56 20.2314 56 27.9669C56 35.7025 52.8265 42.7107 47.8017 47.8017C42.7108 52.8264 35.7025 56 27.967 56C20.2314 56 13.2232 52.8264 8.19837 47.8017C3.10746 42.7107 2.28882e-05 35.7025 2.28882e-05 27.9669C2.28882e-05 20.2314 3.10746 13.2231 8.19837 8.19835C13.2232 3.10744 20.2314 0 27.967 0ZM46.8761 9.12397C42.0496 4.29752 35.3719 1.2562 27.967 1.2562C20.6281 1.2562 13.9504 4.29752 9.12399 9.12397C4.29754 13.9504 1.25622 20.6281 1.25622 27.9669C1.25622 35.3719 4.29754 42.0496 9.12399 46.876C13.9504 51.7025 20.6281 54.6777 27.967 54.6777C35.3719 54.6777 42.0496 51.7025 46.8761 46.876C51.7025 42.0496 54.6777 35.3719 54.6777 27.9669C54.6777 20.6281 51.7025 13.9504 46.8761 9.12397ZM37.157 16.3967C36.3637 16.3306 35.7686 15.6033 35.7686 14.8099C35.8347 13.9504 36.562 13.2893 37.4215 13.3554C38.2149 13.4215 38.8099 14.1488 38.7438 15.0083C38.7438 15.8678 38.0166 16.4628 37.157 16.3967ZM33.5868 13.7521C32.6612 13.686 32 12.8264 32.0661 11.9008C32.1323 10.9752 32.9256 10.2479 33.8513 10.314C34.7108 10.3802 35.438 11.1736 35.3058 12.1653C35.2397 13.0909 34.4463 13.8182 33.5868 13.7521ZM29.5537 11.7686C28.562 11.7025 27.8347 10.7769 27.9008 9.71901C27.967 8.66116 28.8265 7.93388 29.8182 8C30.8099 8.06612 31.5372 8.99174 31.4711 9.98347C31.405 11.0413 30.5455 11.8347 29.5537 11.7686ZM25.0579 11.0413C24 10.9752 23.1405 9.98347 23.2727 8.8595C23.3389 7.66942 24.2645 6.80992 25.3885 6.87603C26.4463 6.94215 27.2397 8 27.1736 9.12397C27.0413 10.314 26.1157 11.1736 25.0579 11.0413ZM19.438 11.3058C18.3141 11.3719 17.3223 10.1818 17.1901 8.66116C17.124 7.1405 17.9835 5.8843 19.1075 5.81818C20.2314 5.75207 21.2893 6.87603 21.3554 8.46281C21.4215 9.98347 20.562 11.2397 19.438 11.3058Z" fill="#F1F1F1"/>
</svg>
