<svg width="24" height="24" viewBox="0 0 24 24" fill="none" xmlns="http://www.w3.org/2000/svg">
<path d="M9.9747 20C10.0873 21 10.9511 21.7778 12 21.7778C13.0489 21.7778 13.9127 21 14.0253 20H9.9747ZM16.296 20C16.1783 22.2286 14.2999 24 12 24C9.70008 24 7.82171 22.2286 7.70397 20H2.03836C0.912596 20 0 19.1054 0 18.0008V17.5548C0 15.9436 1.16698 14.5997 2.71698 14.2896V9.11078C2.71698 4.07775 6.87252 0 12 0C17.1275 0 21.283 4.07871 21.283 9.11078V14.2894C22.8349 14.5989 24 15.9421 24 17.5548V18.0008C24 19.1083 23.0875 20 21.9616 20H16.296ZM21.7358 17.5548C21.7358 16.9405 21.2299 16.4444 20.5996 16.4444C19.7259 16.4444 19.0189 15.7453 19.0189 14.8921V9.11078C19.0189 5.30599 15.8771 2.22222 12 2.22222C8.12287 2.22222 4.98113 5.30515 4.98113 9.11078V14.8921C4.98113 15.7491 4.27044 16.4444 3.4004 16.4444C2.77256 16.4444 2.26415 16.9424 2.26415 17.5548V17.7778H21.7358V17.5548Z" fill="white"/>
</svg>
