<svg width="27" height="27" viewBox="0 0 27 27" fill="none" xmlns="http://www.w3.org/2000/svg">
<path d="M0 1.22727V25.7727C0 26.5091 0.490909 27 1.22727 27C1.96364 27 2.45455 26.5091 2.45455 25.7727V1.22727C2.45455 0.490909 1.96364 0 1.22727 0C0.490909 0 0 0.490909 0 1.22727Z" fill="#38C8E8"/>
<path d="M13.5 0C12.7636 0 12.2727 0.490909 12.2727 1.22727V25.7727C12.2727 26.5091 12.7636 27 13.5 27C14.2364 27 14.7273 26.5091 14.7273 25.7727V1.22727C14.7273 0.490909 14.2364 0 13.5 0Z" fill="#38C8E8"/>
<path d="M3.68179 1.22727V25.7727C3.68179 26.5091 4.17269 27 4.90906 27C5.64542 27 6.13633 26.5091 6.13633 25.7727V1.22727C6.13633 0.490909 5.64542 0 4.90906 0C4.17269 0 3.68179 0.490909 3.68179 1.22727Z" fill="#38C8E8"/>
<path d="M9.81816 0C9.0818 0 8.59089 0.490909 8.59089 1.22727V25.7727C8.59089 26.5091 9.0818 27 9.81816 27C10.5545 27 11.0454 26.5091 11.0454 25.7727V1.22727C11.0454 0.490909 10.5545 0 9.81816 0Z" fill="#38C8E8"/>
<path d="M23.3182 25.7727V1.22727C23.3182 0.490909 22.8273 0 22.0909 0C21.3545 0 20.8636 0.490909 20.8636 1.22727V25.7727C20.8636 26.5091 21.3545 27 22.0909 27C22.8273 27 23.3182 26.5091 23.3182 25.7727Z" fill="#38C8E8"/>
<path d="M27 25.7727V1.22727C27 0.490909 26.5091 0 25.7727 0C25.0364 0 24.5455 0.490909 24.5455 1.22727V25.7727C24.5455 26.5091 25.0364 27 25.7727 27C26.5091 27 27 26.5091 27 25.7727Z" fill="#38C8E8"/>
<path d="M18.4091 1.22727C18.4091 0.490909 17.9182 0 17.1818 0C16.4454 0 15.9545 0.490909 15.9545 1.22727V25.7727C15.9545 26.5091 16.4454 27 17.1818 27C17.9182 27 18.4091 26.5091 18.4091 25.7727V1.22727Z" fill="#38C8E8"/>
</svg>
