<svg width="209" height="282" viewBox="0 0 209 282" fill="none" xmlns="http://www.w3.org/2000/svg">
<circle cx="104.404" cy="100.537" r="95.7036" fill="url(#paint0_linear)"/>
<path d="M89.6299 143.914C89.6917 143.974 89.7712 144.013 89.8566 144.024C89.9419 144.035 90.0287 144.019 90.1039 143.977C89.9437 143.98 89.7839 143.958 89.6299 143.914V143.914Z" fill="url(#paint1_linear)"/>
<path d="M142.717 57.6151C141.779 57.3442 140.441 56.9014 138.831 56.3388C140.504 54.1865 141.728 51.7205 142.431 49.0868L142.295 49.1389C142.342 48.9774 142.389 48.8211 142.431 48.6544C139.342 49.91 135.924 47.7844 133.747 45.0545C131.569 42.3246 130.1 38.9383 127.715 36.4272C126.72 35.4282 125.651 34.5069 124.516 33.6712C123.813 33.1503 123.058 32.5616 122.198 32.5355C120.807 32.4938 119.718 33.8588 118.38 34.2599C117.499 34.4582 116.581 34.4241 115.718 34.161C112.264 33.3691 108.946 31.9051 105.419 31.5196C103.532 31.2866 101.617 31.5025 99.8296 32.15C98.0585 32.822 97.2511 34.161 95.8185 35.2342C94.2558 36.3855 91.2032 36.3594 89.3852 36.5626C87.179 36.8146 84.9576 36.9069 82.7382 36.8387C81.4627 36.7281 80.1785 36.7754 78.9146 36.9794C76.2736 37.5577 74.1534 39.6572 72.1739 41.6682C71.6336 42.1231 71.2447 42.7319 71.0591 43.4134C71.0337 43.6054 71.0337 43.7998 71.0591 43.9917C71.0392 44.5169 71.1297 45.0405 71.3248 45.5286C71.9342 47.3369 72.7952 49.0504 73.8825 50.6185C74.69 51.775 75.6328 52.8639 76.0912 54.234C76.3085 54.9076 76.4227 55.6102 76.4298 56.3179C76.4074 57.0694 76.329 57.8182 76.1954 58.5581C75.8459 60.6036 75.2711 62.6042 74.4816 64.5232C73.9915 65.5083 73.6542 66.5624 73.4814 67.6491C73.4665 67.8711 73.4665 68.0939 73.4814 68.3159C73.3512 71.7543 76.8205 74.2289 77.4925 77.6465C77.5477 77.9301 77.5808 78.2175 77.5915 78.5061C77.5186 80.6369 76.3048 82.7208 74.5129 83.5491C74.6691 83.6117 74.8306 83.6638 74.9921 83.7159C74.838 83.8126 74.6779 83.8996 74.5129 83.9763C74.841 84.1014 75.1744 84.2108 75.513 84.2993C73.4765 86.0734 71.7648 88.1889 70.4549 90.551C64.4278 101.773 23.6084 123.753 23.6084 123.753L24.2127 124.096L23.723 124.414C20.1912 126.764 11.9033 133.615 19.3942 142.278C19.3942 142.278 25.2441 133.047 29.3438 129.113C29.5261 128.936 29.7084 128.775 29.8647 128.624C29.9547 128.762 30.0151 128.918 30.042 129.081C30.0689 129.245 30.0617 129.412 30.021 129.572L56.8588 114.49C56.8588 114.49 66.3969 107.811 69.0588 106.305C70.9324 105.138 72.9713 104.26 75.1067 103.7L74.7941 103.831C75.7976 103.555 76.8322 103.407 77.8728 103.393C82.6236 103.466 87.7703 106.946 89.4633 120.726C91.7345 139.179 90.6822 142.508 89.953 142.961C89.863 142.954 89.774 142.938 89.6873 142.914C89.7098 142.934 89.7342 142.951 89.7602 142.966C89.6614 142.959 89.5636 142.942 89.4685 142.914C89.521 142.962 89.5849 142.996 89.6542 143.012C89.7235 143.029 89.7959 143.027 89.8644 143.008C89.9137 143.023 89.9656 143.027 90.0167 143.021C90.0679 143.015 90.1171 142.998 90.1613 142.971C90.281 142.978 90.4011 142.978 90.5208 142.971C90.5208 143.141 90.5086 143.315 90.4843 143.492C90.4478 143.492 90.2707 143.591 90.4843 143.602C90.427 144.644 90.4322 145.774 90.4843 146.957C88.1245 147.087 85.7648 147.228 83.7123 147.353L83.8946 146.378L83.978 145.941C85.7908 145.795 87.5098 145.264 87.713 143.794C88.1558 140.564 83.7227 138.84 79.9513 138.626C76.1798 138.413 53.5614 139.918 53.5614 139.918C53.5614 139.918 50.1702 144.31 60.9272 145.649C61.2467 145.816 61.5784 145.989 61.9222 146.17C66.1364 148.572 71.8509 152.995 74.591 155.172L74.9713 155.475L73.7419 156.475C80.3941 157.98 86.8274 183.404 90.3749 195.027C93.9224 206.65 101.684 206.228 108.117 204.503C114.145 202.888 114.889 185.384 114.988 183.185V182.961L125.709 196.204L126.522 197.21C126.834 197.373 127.143 197.526 127.449 197.668C135.565 201.529 144.53 194.126 141.983 185.686C139.404 177.178 135.403 164.597 132.736 159.278C130.501 154.823 127.616 147.426 125.865 142.794C126.093 142.703 126.314 142.597 126.527 142.476C126.527 142.476 126.485 142.268 126.417 141.888L126.527 141.83C126.527 141.83 123.922 128.431 123.808 118.908C123.808 118.741 123.808 118.567 123.808 118.387C123.808 118.282 123.808 118.178 123.808 118.079C125.745 117.636 126.975 117.464 126.975 117.464L127.011 117.048L126.787 117.095L127.866 104.753C127.866 104.753 131.825 96.3286 128.793 92.8225C127.871 91.7971 127.256 90.5336 127.017 89.1757C126.496 85.9508 127.017 80.5692 134.075 76.0992C144.941 69.2068 149.182 63.5959 149.182 63.5959C149.182 63.5959 149.369 59.574 142.717 57.6151ZM121.135 66.1799V60.4753C123.151 60.3763 125.209 60.6107 127.235 60.4753C128.23 60.4058 129.216 60.24 130.179 59.9803L130.668 60.319C127.704 62.5996 124.509 64.5639 121.135 66.1799V66.1799ZM90.3228 155.6C91.1198 156.152 91.922 156.725 92.7086 157.303C93.1983 160.116 93.6307 162.101 93.6619 162.242C92.7629 159.927 91.6448 157.702 90.3228 155.6V155.6Z" fill="url(#paint2_linear)"/>
<path d="M107.544 150.911L107.075 153.458L106.716 155.407L106.06 158.97L99.6939 163.425C99.6939 163.425 99.1209 162.935 98.1729 162.159C95.5683 160.012 90.0829 155.657 86.0562 153.302C85.0214 152.641 83.9016 152.124 82.7275 151.765L107.544 150.911Z" fill="#FFBDC6"/>
<path opacity="0.1" d="M107.545 150.911L107.076 153.458C105.673 153.536 104.265 153.465 102.877 153.245L88.0256 153.458C87.3224 153.417 86.666 153.359 86.0513 153.297C85.0166 152.636 83.8967 152.119 82.7227 151.76L107.545 150.911Z" fill="black"/>
<path d="M102.877 152.828C102.877 152.828 110.305 154.099 110.727 150.916C111.149 147.733 106.909 146.055 103.309 145.816C99.7096 145.576 78.0549 147.097 78.0549 147.097C78.0549 147.097 74.2366 152.187 88.0254 153.036L102.877 152.828Z" fill="#5D928B"/>
<path opacity="0.1" d="M107.544 150.911L107.075 153.458L106.716 155.407L106.06 158.97L99.6939 163.425C99.6939 163.425 99.1209 162.935 98.1729 162.159C95.5683 160.012 90.0829 155.657 86.0562 153.302C85.0214 152.641 83.9016 152.124 82.7275 151.765L107.544 150.911Z" fill="black"/>
<path opacity="0.1" d="M107.545 150.911L107.076 153.458C105.673 153.536 104.265 153.465 102.877 153.245L88.0256 153.458C87.3224 153.417 86.666 153.359 86.0513 153.297C85.0166 152.636 83.8967 152.119 82.7227 151.76L107.545 150.911Z" fill="black"/>
<path opacity="0.1" d="M102.877 152.828C102.877 152.828 110.305 154.099 110.727 150.916C111.149 147.733 106.909 146.055 103.309 145.816C99.7096 145.576 78.0549 147.097 78.0549 147.097C78.0549 147.097 74.2366 152.187 88.0254 153.036L102.877 152.828Z" fill="black"/>
<path d="M119.104 48.2115H80.2798V94.2551H119.104V48.2115Z" fill="#5D928B"/>
<path opacity="0.1" d="M119.104 48.2115H80.2798V94.2551H119.104V48.2115Z" fill="black"/>
<path d="M34.7717 127.04C34.1309 127.201 33.3183 127.816 32.4067 128.712C28.4841 132.588 22.8894 141.679 22.8894 141.679C15.7216 133.146 23.6552 126.399 27.0568 124.081C27.8799 123.518 28.4321 123.216 28.4321 123.216L34.7717 127.04Z" fill="#FFBDC6"/>
<path d="M107.123 62.7467C107.123 62.7467 109.034 76.1149 115.608 79.298C122.182 82.4811 107.123 88.4202 107.123 88.4202L86.541 80.7828C86.541 80.7828 98.2097 76.964 95.8759 65.7163L107.123 62.7467Z" fill="#FFBDC6"/>
<path d="M85.077 143.164L84.6081 145.711L84.2487 147.66L83.5923 151.223L77.2267 155.678C77.2267 155.678 76.6537 155.188 75.7056 154.412C73.101 152.265 67.6157 147.91 63.5889 145.555C62.5542 144.894 61.4343 144.377 60.2603 144.018L85.077 143.164Z" fill="#FFBDC6"/>
<path opacity="0.1" d="M85.0773 143.164L84.6085 145.712C83.2053 145.79 81.7978 145.718 80.4098 145.498L65.5584 145.712C64.8551 145.67 64.1987 145.613 63.5841 145.55C62.5493 144.889 61.4295 144.372 60.2554 144.013L85.0773 143.164Z" fill="black"/>
<path d="M80.3889 145.076C80.3889 145.076 87.8172 146.347 88.2391 143.164C88.6611 139.981 84.4208 138.282 80.8108 138.074C77.2008 137.866 55.5618 139.345 55.5618 139.345C55.5618 139.345 51.7434 144.435 65.5322 145.284L80.3889 145.076Z" fill="#5D928B"/>
<path opacity="0.1" d="M84.2282 147.665L83.5718 151.229L77.2061 155.683C77.2061 155.683 76.6331 155.193 75.6851 154.417L84.1031 147.514L84.2282 147.665Z" fill="black"/>
<path d="M126.23 196.241C125.938 196.098 125.643 195.947 125.344 195.787L124.568 194.798L114.316 181.773V182.002C114.249 184.164 113.509 201.409 107.748 202.998C101.596 204.696 94.1672 205.118 90.776 193.662C87.3848 182.206 81.2275 157.168 74.8618 155.683L84.3009 147.936C84.3009 147.936 90.552 155.23 93.1045 162.252C93.0107 161.804 88.6923 141.637 92.2554 138.074H123.229C123.229 138.074 128.001 151.692 131.293 158.444C133.846 163.685 137.675 176.074 140.149 184.456C142.597 192.75 134.044 200.044 126.23 196.241Z" fill="#5D928B"/>
<path opacity="0.1" d="M125.365 141.888C120.588 144.716 99.5848 143.565 92.7399 143.107L90.8802 142.971C90.6771 142.971 90.9115 142.857 90.9115 142.857L91.1042 140.929L96.1936 127.988L123.459 112.192C122.906 113.854 122.719 116.402 122.766 119.324C122.901 128.691 125.365 141.888 125.365 141.888Z" fill="black"/>
<path d="M125.365 141.257C120.588 144.086 99.5847 142.935 92.7398 142.476L90.8801 142.341H90.5728L90.9114 142.252L92.5887 141.809L96.1935 127.379L123.459 111.572C122.906 113.234 122.719 115.782 122.766 118.704C122.901 128.056 125.365 141.257 125.365 141.257Z" fill="#92D4CA"/>
<path opacity="0.1" d="M122.766 118.683C117.224 119.96 105.024 123.716 100.335 132.75C97.2097 138.783 94.6051 141.372 92.7454 142.455L90.8857 142.32L90.917 142.205L92.5944 141.763L96.1991 127.332L123.464 111.525C122.902 113.234 122.719 115.761 122.766 118.683Z" fill="black"/>
<path opacity="0.1" d="M28.406 123.221L34.7716 127.04C34.1309 127.201 33.3183 127.816 32.4067 128.712C31.8857 127.149 28.5414 125.003 27.0308 124.086C27.8538 123.523 28.406 123.221 28.406 123.221Z" fill="black"/>
<path opacity="0.1" d="M89.7659 142.586C89.6949 142.625 89.6131 142.641 89.5324 142.631C89.4518 142.62 89.3766 142.585 89.3179 142.528C89.4636 142.57 89.6145 142.589 89.7659 142.586V142.586Z" fill="black"/>
<path d="M104.148 78.4489C104.148 78.4489 98.4177 79.0845 94.3858 74.8437C94.3858 74.8437 77.4141 79.7252 71.684 90.7594C65.9539 101.794 26.916 123.435 26.916 123.435C26.916 123.435 33.688 127.254 33.0681 129.166L58.7391 114.313C58.7391 114.313 67.8604 107.733 70.4077 106.248C72.9551 104.763 86.9574 95.641 89.9267 120.465C92.8959 145.29 89.9267 142.346 89.9267 142.346C89.9267 142.346 94.1722 143.831 100.345 131.927C106.518 120.022 125.594 117.287 125.594 117.287L126.636 104.784C126.636 104.784 130.423 96.4901 127.522 93.0309C126.637 92.013 126.049 90.7711 125.823 89.4414C125.339 86.2634 125.823 80.9652 132.595 76.5629C143.014 69.7903 147.025 64.2576 147.025 64.2576C147.025 64.2576 147.238 60.2252 140.873 58.3185C134.507 56.4117 108.623 46.0131 108.623 46.0131L107.773 49.6183L128.141 64.0492C128.141 64.0492 117.957 72.3222 109.909 72.1138C109.878 72.0774 111.363 78.2353 104.148 78.4489Z" fill="#07FFE2"/>
<path opacity="0.1" d="M108.081 68.566C107.58 66.8562 107.188 65.1161 106.909 63.3563L95.6625 66.3466C96.1548 68.493 96.0667 70.7317 95.4072 72.8327C97.7057 73.446 100.134 73.3678 102.388 72.608C104.643 71.8481 106.623 70.4404 108.081 68.5608V68.566Z" fill="black"/>
<path d="M98.7408 72.6139C105.421 72.6139 110.837 67.1979 110.837 60.517C110.837 53.836 105.421 48.42 98.7408 48.42C92.0605 48.42 86.645 53.836 86.645 60.517C86.645 67.1979 92.0605 72.6139 98.7408 72.6139Z" fill="#FFBDC6"/>
<path opacity="0.1" d="M105.169 33.0044C108.524 33.3847 111.717 34.8278 115.019 35.6092C115.845 35.868 116.724 35.9022 117.567 35.7082C118.848 35.3123 119.89 33.9681 121.213 34.0098C122.031 34.0098 122.776 34.5933 123.432 35.1299C124.52 35.9549 125.542 36.8624 126.49 37.8442C128.767 40.3188 130.183 43.653 132.262 46.3413C134.34 49.0295 137.617 51.1238 140.571 49.8891C138.565 57.7037 131.981 63.6792 124.865 64.1637C122.026 64.3565 119.135 63.7678 116.369 64.6013C115.683 64.8808 114.96 65.0564 114.222 65.1223C112.66 65.1223 111.368 63.6688 110.378 62.257C108.065 58.9332 106.211 55.1613 103.606 52.1345C102.747 51.1342 101.731 50.1808 100.517 49.9985C99.3033 49.8161 98.1833 50.3944 97.0998 50.9571C95.313 51.8844 93.4846 52.843 92.0989 54.4267C90.7133 56.0105 89.8381 58.3809 90.4111 60.5273C90.7185 61.6839 91.4269 62.7258 91.453 63.9397C91.453 65.8673 89.7756 67.2791 89.437 69.1494C89.3624 69.939 89.3346 70.7322 89.3537 71.5251C89.2026 74.0987 87.5252 76.2138 85.7645 77.8236C85.0821 78.454 84.3216 79.1261 84.1236 80.1003C83.9882 80.7619 84.1236 81.4652 84.0351 82.1373C83.7798 83.8096 82.1128 84.6536 80.6386 84.8724C78.9169 85.1248 77.159 84.9162 75.544 84.2681C77.6277 83.2938 78.8727 80.517 78.3935 78.0164C77.7371 74.5728 74.2782 72.1033 74.5699 68.592C74.733 67.5167 75.0561 66.4719 75.5284 65.4922C76.2833 63.5978 76.8317 61.6276 77.1641 59.6156C77.5049 58.0671 77.471 56.4596 77.0651 54.9269C76.6223 53.5776 75.7211 52.5044 74.9502 51.3634C73.9061 49.8123 73.0821 48.1239 72.5019 46.3465C72.2916 45.8211 72.2112 45.2528 72.2674 44.6898C72.4354 44.0256 72.7983 43.4268 73.3093 42.9706C75.2054 40.9857 77.237 38.9174 79.7583 38.3443C80.9629 38.1436 82.1882 38.0964 83.4047 38.2037C85.5287 38.2713 87.6547 38.1807 89.7652 37.9327C91.5051 37.7296 94.4535 37.7556 95.9225 36.6199C97.2925 35.578 98.0687 34.2495 99.7617 33.5826C101.49 32.95 103.346 32.7514 105.169 33.0044V33.0044Z" fill="black"/>
<path opacity="0.1" d="M111.895 157.913C111.895 157.913 118.896 171.703 116.776 175.949Z" fill="black"/>
<path opacity="0.1" d="M124.59 194.798L114.338 181.773V182.003C114.338 182.003 113.744 177.793 115.697 179.21C119.974 182.305 126.819 187.379 126.965 188.254C127.111 189.129 125.579 192.641 124.59 194.798Z" fill="black"/>
<g opacity="0.1">
<path opacity="0.1" d="M110.082 72.0773C110.082 72.0773 110.947 75.6616 108.149 77.4537C112.457 76.714 112.645 73.3641 112.515 71.9054C111.711 72.0356 110.896 72.0931 110.082 72.0773V72.0773Z" fill="black"/>
<path opacity="0.1" d="M29.4693 122.586C29.4693 122.586 68.5072 100.944 74.2373 89.9103C78.3474 81.9915 88.2501 77.2454 93.5114 75.1928C89.6722 76.4796 76.7533 81.4132 71.8984 90.7595C66.1682 101.794 27.1304 123.435 27.1304 123.435L29.4693 122.586Z" fill="black"/>
<path opacity="0.1" d="M117.677 70.3946C124.319 68.3107 130.669 63.1687 130.669 63.1687L110.301 48.7378L110.765 46.7581L108.816 45.9766L107.967 49.5818L128.335 64.0127C125.067 66.5823 121.486 68.7267 117.677 70.3946V70.3946Z" fill="black"/>
<path opacity="0.1" d="M117.807 119.293C120.41 118.405 123.08 117.73 125.793 117.277L125.829 116.865C123.096 117.466 120.414 118.277 117.807 119.293V119.293Z" fill="black"/>
<path opacity="0.1" d="M93.1203 141.523H92.9327C92.8617 141.563 92.7799 141.578 92.6993 141.568C92.6187 141.558 92.5435 141.522 92.4848 141.466C92.6305 141.506 92.7814 141.526 92.9327 141.523C93.6308 141.117 94.6778 137.949 92.4848 119.611C90.1406 100.033 80.9411 101.57 75.9038 103.82C81.0505 102.403 88.1351 103.627 90.151 120.46C92.3441 138.798 91.2971 141.971 90.599 142.372C91.5038 142.339 92.3795 142.044 93.1203 141.523Z" fill="black"/>
<path opacity="0.1" d="M90.5994 142.377C90.448 142.38 90.2971 142.361 90.1514 142.32C90.2101 142.376 90.2853 142.412 90.3659 142.422C90.4466 142.433 90.5284 142.417 90.5994 142.377V142.377Z" fill="black"/>
</g>
<path d="M105.169 32.5928C108.524 32.9731 111.717 34.4162 115.019 35.1977C115.845 35.4565 116.724 35.4906 117.567 35.2966C118.848 34.9007 119.89 33.5566 121.213 33.5983C122.031 33.5983 122.776 34.1818 123.432 34.7184C124.52 35.5434 125.542 36.4508 126.49 37.4326C128.767 39.9072 130.183 43.2415 132.262 45.9297C134.34 48.6179 137.617 50.7122 140.571 49.4775C138.565 57.2921 131.981 63.2676 124.865 63.7521C122.026 63.9449 119.135 63.3562 116.369 64.1898C115.683 64.4692 114.96 64.6448 114.222 64.7107C112.66 64.7107 111.368 63.2572 110.378 61.8454C108.065 58.5216 106.211 54.7497 103.606 51.7229C102.747 50.7226 101.731 49.7692 100.517 49.5869C99.3033 49.4046 98.1833 49.9829 97.0998 50.5455C95.313 51.4728 93.4846 52.4314 92.0989 54.0152C90.7133 55.5989 89.8381 57.9694 90.4111 60.1158C90.7185 61.2723 91.4269 62.3143 91.453 63.5281C91.453 65.4557 89.7756 66.8676 89.437 68.7379C89.3624 69.5274 89.3346 70.3207 89.3537 71.1135C89.2026 73.6871 87.5252 75.8022 85.7645 77.412C85.0821 78.0424 84.3216 78.7145 84.1236 79.6887C83.9882 80.3503 84.1236 81.0536 84.0351 81.7257C83.7798 83.398 82.1128 84.242 80.6386 84.4608C78.9169 84.7132 77.159 84.5046 75.544 83.8565C77.6277 82.8822 78.8727 80.1055 78.3935 77.6048C77.7371 74.1612 74.2782 71.6918 74.5699 68.1804C74.733 67.1051 75.0561 66.0603 75.5284 65.0806C76.2833 63.1863 76.8317 61.216 77.1641 59.2041C77.5049 57.6556 77.471 56.048 77.0651 54.5153C76.6223 53.166 75.7211 52.0928 74.9502 50.9519C73.9061 49.4008 73.0821 47.7124 72.5019 45.9349C72.2916 45.4096 72.2112 44.8413 72.2674 44.2782C72.4354 43.614 72.7983 43.0153 73.3093 42.559C75.2054 40.5741 77.237 38.5058 79.7583 37.9328C80.963 37.7321 82.1882 37.6848 83.4047 37.7921C85.5287 37.8597 87.6547 37.7691 89.7652 37.5212C91.5051 37.318 94.4535 37.3441 95.9225 36.2083C97.2925 35.1664 98.0687 33.8379 99.7617 33.1711C101.49 32.5385 103.346 32.3399 105.169 32.5928V32.5928Z" fill="#5D928B"/>
<path d="M171.172 122.828C171.827 121.113 174.253 121.113 174.908 122.828L175.721 124.956C176.004 125.696 176.697 126.2 177.488 126.24L179.764 126.356C181.597 126.449 182.347 128.756 180.919 129.909L179.145 131.341C178.529 131.838 178.264 132.653 178.471 133.418L179.064 135.618C179.542 137.39 177.579 138.816 176.041 137.814L174.132 136.57C173.468 136.138 172.612 136.138 171.948 136.57L170.039 137.814C168.501 138.816 166.538 137.39 167.016 135.618L167.609 133.418C167.815 132.653 167.551 131.838 166.934 131.341L165.161 129.909C163.732 128.756 164.482 126.449 166.316 126.356L168.591 126.24C169.383 126.2 170.075 125.696 170.358 124.956L171.172 122.828Z" fill="white"/>
<path d="M46.4667 188.563C47.1219 186.849 49.5481 186.849 50.2033 188.563L50.2904 188.792C50.5732 189.532 51.266 190.035 52.0572 190.075L52.3011 190.088C54.1345 190.181 54.8842 192.488 53.4557 193.641L53.2657 193.795C52.6493 194.292 52.3846 195.107 52.5909 195.872L52.6544 196.107C53.1324 197.88 51.1696 199.306 49.6315 198.304L49.4269 198.17C48.7632 197.738 47.9068 197.738 47.2431 198.17L47.0385 198.304C45.5004 199.306 43.5376 197.88 44.0156 196.107L44.0791 195.872C44.2854 195.107 44.0207 194.292 43.4043 193.795L43.2143 193.641C41.7858 192.488 42.5355 190.181 44.3689 190.088L44.6128 190.075C45.404 190.035 46.0968 189.532 46.3796 188.792L46.4667 188.563Z" fill="white"/>
<path d="M171.491 37.5913C171.865 36.6128 173.249 36.6128 173.623 37.5913V37.5913C173.784 38.0135 174.179 38.3007 174.631 38.3236V38.3236C175.677 38.3768 176.104 39.6932 175.289 40.3511V40.3511C174.938 40.635 174.787 41.0997 174.904 41.5361V41.5361C175.177 42.5474 174.057 43.361 173.18 42.7892V42.7892C172.801 42.5424 172.312 42.5424 171.934 42.7892V42.7892C171.056 43.361 169.936 42.5474 170.209 41.5361V41.5361C170.327 41.0997 170.176 40.635 169.824 40.3511V40.3511C169.009 39.6932 169.437 38.3768 170.483 38.3236V38.3236C170.934 38.3007 171.329 38.0135 171.491 37.5913V37.5913Z" fill="white"/>
<circle cx="44.9518" cy="118.421" r="3.38346" fill="white"/>
<circle cx="88.2686" cy="23.7426" r="4.35016" fill="white"/>
<circle cx="86.541" cy="15.3608" r="10.5273" fill="#14F0C8"/>
<circle cx="86.541" cy="15.3608" r="8.22357" fill="#27BAA6" stroke="#2AD2BE" stroke-width="1.5"/>
<path fill-rule="evenodd" clip-rule="evenodd" d="M88.9977 11.7785H92.298L88.2388 19.897H88.1437L86.5411 16.6917L88.9977 11.7785ZM86.5411 16.6917L84.0845 11.7785H80.7842L84.8434 19.897H88.1438L88.1437 19.897H84.9384L86.5411 16.6917Z" fill="#2AD2BE"/>
<path fill-rule="evenodd" clip-rule="evenodd" d="M88.9977 11.5743H92.298L88.2388 19.6927H88.1433L86.5409 16.4879L88.9977 11.5743ZM86.5409 16.4879L84.0845 11.5752H80.7842L84.8434 19.6936H88.1438L88.1433 19.6927H84.9384L86.5409 16.4879Z" fill="#14F0C8"/>
<circle cx="173.04" cy="133.5" r="12.5672" fill="#14F0C8"/>
<circle cx="173.04" cy="133.5" r="9.96237" fill="#27BAA6" stroke="#2AD2BE" stroke-width="1.5"/>
<path fill-rule="evenodd" clip-rule="evenodd" d="M175.973 129.223H179.913L175.067 138.915H174.954L173.041 135.088L175.973 129.223ZM173.041 135.088L170.108 129.224H166.168L171.014 138.915H174.954L174.954 138.915H171.127L173.041 135.088Z" fill="#2AD2BE"/>
<path fill-rule="evenodd" clip-rule="evenodd" d="M175.973 128.98H179.913L175.067 138.671H174.954L173.041 134.844L175.973 128.98ZM173.041 134.844L170.108 128.98H166.168L171.014 138.671H174.954L174.954 138.671H171.127L173.041 134.844Z" fill="#14F0C8"/>
<circle cx="48.3353" cy="114.423" r="12.5672" fill="#14F0C8"/>
<circle cx="48.3359" cy="114.423" r="9.96237" fill="#27BAA6" stroke="#2AD2BE" stroke-width="1.5"/>
<path fill-rule="evenodd" clip-rule="evenodd" d="M51.2685 110.147H55.2083L50.3626 119.838H50.2486L48.3357 116.012L51.2685 110.147ZM48.3357 116.012L45.4032 110.147H41.4634L46.3092 119.839H50.249L50.2486 119.838H46.4227L48.3357 116.012Z" fill="#2AD2BE"/>
<path fill-rule="evenodd" clip-rule="evenodd" d="M45.4032 109.903H41.4634L46.3092 119.594H46.4227L46.4227 119.594H50.3626L55.2083 109.903H51.2685L48.3359 115.768L45.4032 109.903ZM48.3359 115.768L46.4227 119.594H50.249L48.3359 115.768Z" fill="#14F0C8"/>
<circle cx="159.814" cy="72.614" r="4.3151" fill="#14F0C8"/>
<circle cx="159.814" cy="72.6139" r="2.92822" fill="#27BAA6" stroke="#2AD2BE" stroke-width="1.5"/>
<path fill-rule="evenodd" clip-rule="evenodd" d="M158.807 71.1456H157.455L159.118 74.4733H159.157L159.157 74.4734H160.51L162.174 71.1457H160.821L159.814 73.1593L158.807 71.1456ZM159.814 73.1593L159.157 74.4733H160.471L159.814 73.1593Z" fill="#2AD2BE"/>
<path fill-rule="evenodd" clip-rule="evenodd" d="M160.821 71.0619H162.174L160.51 74.3896H160.471L159.814 73.0756L160.821 71.0619ZM159.814 73.0756L158.807 71.0619H157.455L159.118 74.3896H160.471L160.471 74.3896H159.157L159.814 73.0756Z" fill="#14F0C8"/>
<circle cx="44.0209" cy="71.9055" r="8.54926" fill="#14F0C8"/>
<circle cx="44.0208" cy="71.9052" r="6.53745" fill="#27BAA6" stroke="#2AD2BE" stroke-width="1.5"/>
<path fill-rule="evenodd" clip-rule="evenodd" d="M46.0161 68.9962H48.6963L45.3998 75.5892H45.3224L44.021 72.9863L46.0161 68.9962ZM44.021 72.9863L42.0259 68.9962H39.3457L42.6422 75.5892H45.3224L45.3224 75.5892H42.7196L44.021 72.9863Z" fill="#2AD2BE"/>
<path fill-rule="evenodd" clip-rule="evenodd" d="M42.0259 68.8304H39.3457L42.6422 75.4234H42.7197L42.7197 75.4234H45.3999L48.6964 68.8304H46.0162L44.021 72.8206L42.0259 68.8304ZM44.021 72.8206L42.7197 75.4234H45.3224L44.021 72.8206Z" fill="#14F0C8"/>
<path d="M49.84 242.94L44.35 264H38.14L34.78 250.14L31.3 264H25.09L19.75 242.94H25.24L28.27 258.27L32.02 242.94H37.66L41.26 258.27L44.32 242.94H49.84ZM51.3927 255.6C51.3927 253.88 51.7127 252.37 52.3527 251.07C53.0127 249.77 53.9027 248.77 55.0227 248.07C56.1427 247.37 57.3927 247.02 58.7727 247.02C59.9527 247.02 60.9827 247.26 61.8627 247.74C62.7627 248.22 63.4527 248.85 63.9327 249.63V247.26H69.0627V264H63.9327V261.63C63.4327 262.41 62.7327 263.04 61.8327 263.52C60.9527 264 59.9227 264.24 58.7427 264.24C57.3827 264.24 56.1427 263.89 55.0227 263.19C53.9027 262.47 53.0127 261.46 52.3527 260.16C51.7127 258.84 51.3927 257.32 51.3927 255.6ZM63.9327 255.63C63.9327 254.35 63.5727 253.34 62.8527 252.6C62.1527 251.86 61.2927 251.49 60.2727 251.49C59.2527 251.49 58.3827 251.86 57.6627 252.6C56.9627 253.32 56.6127 254.32 56.6127 255.6C56.6127 256.88 56.9627 257.9 57.6627 258.66C58.3827 259.4 59.2527 259.77 60.2727 259.77C61.2927 259.77 62.1527 259.4 62.8527 258.66C63.5727 257.92 63.9327 256.91 63.9327 255.63ZM79.5841 264.24C78.1241 264.24 76.8241 263.99 75.6841 263.49C74.5441 262.99 73.6441 262.31 72.9841 261.45C72.3241 260.57 71.9541 259.59 71.8741 258.51H76.9441C77.0041 259.09 77.2741 259.56 77.7541 259.92C78.2341 260.28 78.8241 260.46 79.5241 260.46C80.1641 260.46 80.6541 260.34 80.9941 260.1C81.3541 259.84 81.5341 259.51 81.5341 259.11C81.5341 258.63 81.2841 258.28 80.7841 258.06C80.2841 257.82 79.4741 257.56 78.3541 257.28C77.1541 257 76.1541 256.71 75.3541 256.41C74.5541 256.09 73.8641 255.6 73.2841 254.94C72.7041 254.26 72.4141 253.35 72.4141 252.21C72.4141 251.25 72.6741 250.38 73.1941 249.6C73.7341 248.8 74.5141 248.17 75.5341 247.71C76.5741 247.25 77.8041 247.02 79.2241 247.02C81.3241 247.02 82.9741 247.54 84.1741 248.58C85.3941 249.62 86.0941 251 86.2741 252.72H81.5341C81.4541 252.14 81.1941 251.68 80.7541 251.34C80.3341 251 79.7741 250.83 79.0741 250.83C78.4741 250.83 78.0141 250.95 77.6941 251.19C77.3741 251.41 77.2141 251.72 77.2141 252.12C77.2141 252.6 77.4641 252.96 77.9641 253.2C78.4841 253.44 79.2841 253.68 80.3641 253.92C81.6041 254.24 82.6141 254.56 83.3941 254.88C84.1741 255.18 84.8541 255.68 85.4341 256.38C86.0341 257.06 86.3441 257.98 86.3641 259.14C86.3641 260.12 86.0841 261 85.5241 261.78C84.9841 262.54 84.1941 263.14 83.1541 263.58C82.1341 264.02 80.9441 264.24 79.5841 264.24ZM98.8326 259.65V264H96.2226C94.3626 264 92.9126 263.55 91.8726 262.65C90.8326 261.73 90.3126 260.24 90.3126 258.18V251.52H88.2726V247.26H90.3126V243.18H95.4426V247.26H98.8026V251.52H95.4426V258.24C95.4426 258.74 95.5626 259.1 95.8026 259.32C96.0426 259.54 96.4426 259.65 97.0026 259.65H98.8326ZM117.47 255.36C117.47 255.84 117.44 256.34 117.38 256.86H105.77C105.85 257.9 106.18 258.7 106.76 259.26C107.36 259.8 108.09 260.07 108.95 260.07C110.23 260.07 111.12 259.53 111.62 258.45H117.08C116.8 259.55 116.29 260.54 115.55 261.42C114.83 262.3 113.92 262.99 112.82 263.49C111.72 263.99 110.49 264.24 109.13 264.24C107.49 264.24 106.03 263.89 104.75 263.19C103.47 262.49 102.47 261.49 101.75 260.19C101.03 258.89 100.67 257.37 100.67 255.63C100.67 253.89 101.02 252.37 101.72 251.07C102.44 249.77 103.44 248.77 104.72 248.07C106 247.37 107.47 247.02 109.13 247.02C110.75 247.02 112.19 247.36 113.45 248.04C114.71 248.72 115.69 249.69 116.39 250.95C117.11 252.21 117.47 253.68 117.47 255.36ZM112.22 254.01C112.22 253.13 111.92 252.43 111.32 251.91C110.72 251.39 109.97 251.13 109.07 251.13C108.21 251.13 107.48 251.38 106.88 251.88C106.3 252.38 105.94 253.09 105.8 254.01H112.22ZM119.306 253.44C119.306 251.36 119.756 249.51 120.656 247.89C121.556 246.25 122.806 244.98 124.406 244.08C126.026 243.16 127.856 242.7 129.896 242.7C132.396 242.7 134.536 243.36 136.316 244.68C138.096 246 139.286 247.8 139.886 250.08H134.246C133.826 249.2 133.226 248.53 132.446 248.07C131.686 247.61 130.816 247.38 129.836 247.38C128.256 247.38 126.976 247.93 125.996 249.03C125.016 250.13 124.526 251.6 124.526 253.44C124.526 255.28 125.016 256.75 125.996 257.85C126.976 258.95 128.256 259.5 129.836 259.5C130.816 259.5 131.686 259.27 132.446 258.81C133.226 258.35 133.826 257.68 134.246 256.8H139.886C139.286 259.08 138.096 260.88 136.316 262.2C134.536 263.5 132.396 264.15 129.896 264.15C127.856 264.15 126.026 263.7 124.406 262.8C122.806 261.88 121.556 260.61 120.656 258.99C119.756 257.37 119.306 255.52 119.306 253.44ZM150.648 264.24C149.008 264.24 147.528 263.89 146.208 263.19C144.908 262.49 143.878 261.49 143.118 260.19C142.378 258.89 142.008 257.37 142.008 255.63C142.008 253.91 142.388 252.4 143.148 251.1C143.908 249.78 144.948 248.77 146.268 248.07C147.588 247.37 149.068 247.02 150.708 247.02C152.348 247.02 153.828 247.37 155.148 248.07C156.468 248.77 157.508 249.78 158.268 251.1C159.028 252.4 159.408 253.91 159.408 255.63C159.408 257.35 159.018 258.87 158.238 260.19C157.478 261.49 156.428 262.49 155.088 263.19C153.768 263.89 152.288 264.24 150.648 264.24ZM150.648 259.8C151.628 259.8 152.458 259.44 153.138 258.72C153.838 258 154.188 256.97 154.188 255.63C154.188 254.29 153.848 253.26 153.168 252.54C152.508 251.82 151.688 251.46 150.708 251.46C149.708 251.46 148.878 251.82 148.218 252.54C147.558 253.24 147.228 254.27 147.228 255.63C147.228 256.97 147.548 258 148.188 258.72C148.848 259.44 149.668 259.8 150.648 259.8ZM164.71 245.52C163.81 245.52 163.07 245.26 162.49 244.74C161.93 244.2 161.65 243.54 161.65 242.76C161.65 241.96 161.93 241.3 162.49 240.78C163.07 240.24 163.81 239.97 164.71 239.97C165.59 239.97 166.31 240.24 166.87 240.78C167.45 241.3 167.74 241.96 167.74 242.76C167.74 243.54 167.45 244.2 166.87 244.74C166.31 245.26 165.59 245.52 164.71 245.52ZM167.26 247.26V264H162.13V247.26H167.26ZM181.177 247.08C183.137 247.08 184.697 247.72 185.857 249C187.037 250.26 187.627 252 187.627 254.22V264H182.527V254.91C182.527 253.79 182.237 252.92 181.657 252.3C181.077 251.68 180.297 251.37 179.317 251.37C178.337 251.37 177.557 251.68 176.977 252.3C176.397 252.92 176.107 253.79 176.107 254.91V264H170.977V247.26H176.107V249.48C176.627 248.74 177.327 248.16 178.207 247.74C179.087 247.3 180.077 247.08 181.177 247.08Z" fill="white"/>
<defs>
<linearGradient id="paint0_linear" x1="34.4771" y1="18.3954" x2="80.8304" y2="210.1" gradientUnits="userSpaceOnUse">
<stop offset="0.255208" stop-color="#14F0C8"/>
<stop offset="1" stop-color="#30C1B0" stop-opacity="0.9"/>
</linearGradient>
<linearGradient id="paint1_linear" x1="215.814" y1="198.981" x2="215.814" y2="198.957" gradientUnits="userSpaceOnUse">
<stop stop-color="#808080" stop-opacity="0.25"/>
<stop offset="0.54" stop-color="#808080" stop-opacity="0.12"/>
<stop offset="1" stop-color="#808080" stop-opacity="0.1"/>
</linearGradient>
<linearGradient id="paint2_linear" x1="33561.4" y1="105292" x2="33561.4" y2="47181.4" gradientUnits="userSpaceOnUse">
<stop stop-color="#808080" stop-opacity="0.25"/>
<stop offset="0.54" stop-color="#808080" stop-opacity="0.12"/>
<stop offset="1" stop-color="#808080" stop-opacity="0.1"/>
</linearGradient>
</defs>
</svg>
