<svg width="25" height="25" viewBox="0 0 25 25" fill="none" xmlns="http://www.w3.org/2000/svg">
<path d="M12.5002 2.5C8.63024 2.5 5.50024 5.63 5.50024 9.5C5.50024 14.75 12.5002 22.5 12.5002 22.5C12.5002 22.5 19.5002 14.75 19.5002 9.5C19.5002 5.63 16.3702 2.5 12.5002 2.5ZM12.5002 12C11.8372 12 11.2013 11.7366 10.7325 11.2678C10.2636 10.7989 10.0002 10.163 10.0002 9.5C10.0002 8.83696 10.2636 8.20107 10.7325 7.73223C11.2013 7.26339 11.8372 7 12.5002 7C13.1633 7 13.7992 7.26339 14.268 7.73223C14.7369 8.20107 15.0002 8.83696 15.0002 9.5C15.0002 10.163 14.7369 10.7989 14.268 11.2678C13.7992 11.7366 13.1633 12 12.5002 12Z" fill="#5D928B"/>
</svg>
