<svg width="25" height="25" viewBox="0 0 25 25" fill="none" xmlns="http://www.w3.org/2000/svg">
<path d="M23.0003 6.4067C23.0003 7.3217 22.6694 8.60702 21.594 10.5317C20.2815 12.8722 19.0698 14.6825 16.7481 17.0103C14.5051 19.2547 13.053 20.3469 10.2714 21.8755C7.13077 23.6023 5.48452 23.308 4.78092 22.9789C3.93999 22.587 3.43702 22.0086 2.9378 21.2609C2.65956 20.8363 2.42106 20.3869 2.2253 19.9184C2.20514 19.8715 2.18592 19.828 2.16858 19.789C2.06405 19.557 1.90608 19.2055 2.07483 18.7601C2.18639 18.463 2.41467 18.1976 2.82483 17.7823C3.66483 16.9306 5.53561 15.7667 6.45436 15.3373C7.07358 15.049 7.48233 14.8583 7.94077 14.8578C8.47748 14.8578 8.89139 15.1278 9.33811 15.4555C9.42202 15.5169 9.50217 15.5778 9.57998 15.6369C10.0487 15.9936 10.1842 16.0719 10.4261 16.0203C10.9122 15.9158 12.3592 15.1362 13.6375 13.8551C14.9158 12.574 15.6461 11.1687 15.7501 10.6808C15.804 10.4286 15.7225 10.2903 15.3531 9.80655C15.3001 9.73717 15.2453 9.66592 15.1905 9.59139C14.8187 9.0917 14.5558 8.69701 14.5558 8.17295V8.17014C14.5558 7.71405 14.7536 7.32358 15.0798 6.6767C15.5055 5.83295 16.6544 3.90592 17.507 3.06076C17.9214 2.64967 18.1858 2.42045 18.4825 2.30842C18.9292 2.13967 19.2794 2.29858 19.5137 2.40217C19.5526 2.41952 19.5953 2.43873 19.6426 2.45889C20.1102 2.6562 20.5587 2.89612 20.9823 3.17561C21.7276 3.67389 22.3047 4.17874 22.697 5.02155C22.9017 5.45433 23.0054 5.92797 23.0003 6.4067Z" fill="#5D928B"/>
</svg>
