<svg width="46" height="42" viewBox="0 0 46 42" fill="none" xmlns="http://www.w3.org/2000/svg">
<ellipse cx="22.7849" cy="23.6224" rx="22.5696" ry="18.0998" fill="#27BAA6"/>
<ellipse cx="22.7849" cy="23.6224" rx="22.5696" ry="18.0998" fill="#27BAA6"/>
<ellipse cx="22.7849" cy="23.6224" rx="22.5696" ry="18.0998" fill="#27BAA6"/>
<ellipse cx="22.7849" cy="23.6224" rx="22.5696" ry="18.0998" fill="#27BAA6"/>
<ellipse cx="22.7849" cy="21.8487" rx="22.5696" ry="18.0998" fill="#27BAA6"/>
<ellipse cx="22.7849" cy="20.0749" rx="22.5696" ry="18.0998" fill="#27BAA6"/>
<ellipse cx="22.7849" cy="20.0749" rx="22.5696" ry="18.0998" fill="#27BAA6"/>
<ellipse cx="22.7851" cy="18.3009" rx="22.5696" ry="18.0998" fill="#14F0C8"/>
<path d="M41.0235 18.3008C41.0235 26.0746 33.0752 32.7291 22.7851 32.7291C12.495 32.7291 4.54663 26.0746 4.54663 18.3008C4.54663 10.5269 12.495 3.87244 22.7851 3.87244C33.0752 3.87244 41.0235 10.5269 41.0235 18.3008Z" fill="#27BAA6" stroke="#2AD2BE" stroke-width="2"/>
<path fill-rule="evenodd" clip-rule="evenodd" d="M17.519 12.1414H10.4434L19.1459 26.0995H19.3495L19.3495 26.0996H26.4251L35.1277 12.1414H28.0521L22.7855 20.5885L17.519 12.1414ZM22.7855 20.5885L19.3495 26.0995H26.2215L22.7855 20.5885Z" fill="#2AD2BE"/>
<path fill-rule="evenodd" clip-rule="evenodd" d="M17.519 11.7906H10.4434L19.1459 25.7488H19.3495L19.3495 25.7489H26.4251L35.1277 11.7907H28.0521L22.7855 20.2378L17.519 11.7906ZM22.7855 20.2378L19.3495 25.7488H26.2215L22.7855 20.2378Z" fill="#14F0C8"/>
</svg>
