<svg width="32" height="32" viewBox="0 0 32 32" fill="none" xmlns="http://www.w3.org/2000/svg">
<path d="M16.0001 2.66669C8.64008 2.66669 2.66675 8.64002 2.66675 16C2.66675 23.36 8.64008 29.3334 16.0001 29.3334C23.3601 29.3334 29.3334 23.36 29.3334 16C29.3334 8.64002 23.3601 2.66669 16.0001 2.66669ZM16.0001 6.66669C18.2134 6.66669 20.0001 8.45335 20.0001 10.6667C20.0001 12.88 18.2134 14.6667 16.0001 14.6667C13.7867 14.6667 12.0001 12.88 12.0001 10.6667C12.0001 8.45335 13.7867 6.66669 16.0001 6.66669ZM16.0001 25.6C12.6667 25.6 9.72008 23.8934 8.00008 21.3067C8.04008 18.6534 13.3334 17.2 16.0001 17.2C18.6534 17.2 23.9601 18.6534 24.0001 21.3067C22.2801 23.8934 19.3334 25.6 16.0001 25.6Z" fill="white"/>
</svg>
