<svg width="350" height="223" viewBox="0 0 350 223" fill="none" xmlns="http://www.w3.org/2000/svg">
<rect x="1" y="2" width="349" height="220" fill="#2AD2BE"/>
<rect x="1" y="2" width="349" height="220" fill="url(#paint0_linear)"/>
<rect x="1" y="203.667" width="349" height="18.3333" fill="#38C8E8"/>
<rect x="1" y="203.667" width="349" height="18.3333" fill="#38C8E8"/>
<path d="M66 66H131.658L165.329 144.901L131.658 222.088L66 66Z" fill="white" fill-opacity="0.2"/>
<path d="M261.109 66H197.797L165.328 144.901L197.797 222.088L261.109 66Z" fill="white" fill-opacity="0.2"/>
<path fill-rule="evenodd" clip-rule="evenodd" d="M343.293 47.0358C345.292 47.0461 347.253 47.5569 349 48.5179V222H233.628L235.67 220.59C237.584 219.225 239.864 218.465 242.214 218.408L310.933 216.469L279.301 156.598C278.354 154.775 277.88 152.743 277.923 150.689C277.965 148.635 278.522 146.624 279.543 144.842L332.627 53.0957C333.718 51.2391 335.277 49.7019 337.149 48.6383C339.021 47.5747 341.14 47.022 343.293 47.0358ZM97.1606 222C96.5909 221.489 95.9725 221.032 95.3124 220.634C93.5541 219.575 91.5572 218.976 89.5062 218.893L21.7572 216.348L54.4803 155.871C55.6848 153.825 56.195 151.444 55.9347 149.084L49.7537 71.6388C49.5026 68.598 48.1166 65.7629 45.8711 63.6971C43.6257 61.6313 40.6851 60.4859 37.634 60.4887H0V84.7281H26.4838L31.4529 147.508L0 205.772V222H97.1606ZM10.4439 0L3.82001 10.5556C2.67023 12.3915 2.03381 14.5022 1.97705 16.6677C1.92029 18.8332 2.44525 20.9743 3.49731 22.868C4.54932 24.7617 6.0899 26.3386 7.95856 27.4344C9.82721 28.5303 11.9555 29.105 14.1218 29.0987H120.169C122.209 29.0883 124.214 28.5602 125.994 27.564C127.775 26.5677 129.273 25.1358 130.35 23.4024L145.044 0H10.4439ZM187.275 0L202.462 24.6144C203.728 26.5674 205.483 28.1551 207.552 29.2199L277.846 62.4278C279.419 63.2405 281.166 63.6565 282.937 63.6398C285.074 63.6553 287.176 63.1022 289.029 62.0374C290.882 60.9725 292.418 59.4342 293.481 57.5799L320.629 10.4344C321.722 8.54844 322.278 6.39893 322.235 4.21946C322.206 2.76641 321.913 1.3371 321.374 0H293.151L296.026 4.61692L278.089 35.7645L221.126 8.73759L215.728 0H187.275Z" fill="white" fill-opacity="0.2"/>
<defs>
<linearGradient id="paint0_linear" x1="175.5" y1="2" x2="175.5" y2="222" gradientUnits="userSpaceOnUse">
<stop stop-color="#2AD2BE"/>
<stop offset="0.739583" stop-color="#38C8E8"/>
</linearGradient>
</defs>
</svg>
