<svg width="101" height="148" viewBox="0 0 101 148" fill="none" xmlns="http://www.w3.org/2000/svg">
<path d="M50.1561 145.348C76.1552 145.348 97.2316 124.272 97.2316 98.2725C97.2316 72.2734 76.1552 51.197 50.1561 51.197C24.157 51.197 3.08057 72.2734 3.08057 98.2725C3.08057 124.272 24.157 145.348 50.1561 145.348Z" fill="#07FFE2" stroke="#1F1A17" stroke-width="0.003"/>
<path fill-rule="evenodd" clip-rule="evenodd" d="M99.9998 98.2979C99.9998 111.92 95.097 123.477 85.2917 132.984C75.5038 142.492 63.7723 147.237 50.1327 147.237C36.4924 147.237 24.7786 142.492 14.9909 132.984C5.22055 123.476 0.317871 111.92 0.317871 98.2979C0.317871 84.6929 5.23821 73.1017 15.0436 63.5238C24.7962 54.0512 36.4925 49.306 50.1328 49.306C63.7726 49.306 75.469 54.0512 85.2217 63.5238C95.0622 73.1017 99.9999 84.6929 99.9999 98.2979H99.9998ZM96.6553 98.6655V96.8619C87.7955 95.8992 83.3658 95.4264 83.3305 95.4264C83.1205 95.4264 80.8617 95.6539 76.5543 96.0917L79.1108 101.012L72.5448 103.375L68.7977 94.9184L67.6245 95.6365C69.7432 99.5236 70.9163 103.288 71.109 106.913C68.9204 109.521 66.7315 112.165 64.5428 114.862C64.5778 120.658 63.965 125.893 62.7043 130.62L56.1383 136.258L51.4107 133.177C51.008 126.576 49.9049 119.94 48.1366 113.233L44.1268 107.578L35.2145 105.477L32.9032 100.101L34.4439 92.2919C37.0354 91.539 40.7474 90.1557 45.5626 88.1421C46.7006 88.93 48.1366 89.4554 49.87 89.7356C51.3758 89.9806 52.8815 90.1907 54.3873 90.4009C54.4224 90.4009 56.5761 90.9963 60.8482 92.2045C63.3873 92.8873 65.5935 93.2726 67.4669 93.3776L69.568 88.2472H67.0117L65.5233 80.3504L59.1148 80.0879L59.5177 82.6617L62.7569 86.759L60.183 85.4807L60.7957 87.3717L56.2958 88.4572L58.0293 87.1616L56.751 83.5195L53.7219 81.366L51.3581 83.5195L47.9263 82.9069L45.8253 86.759L41.9206 84.8154L44.9496 81.1734L49.4671 79.8777L51.3581 77.1113L58.0293 74.082L59.5177 72.4011L61.0058 66.1853L56.9611 68.2339L58.7996 69.2669L55.9282 71.9283L54.9125 69.0569L53.4769 71.3155L49.1519 67.6209L58.3971 59.6192H65.9788L66.8016 55.1543C61.6714 53.2457 56.366 52.2825 50.8504 52.2825C44.7221 52.2825 39.6618 53.1231 35.6695 54.804C36.5975 55.522 37.0528 56.31 37.0528 57.1678C37.0528 57.5706 36.6501 57.8858 35.8271 58.0783C35.2317 58.1834 34.654 58.2884 34.0761 58.3935C32.4654 58.9012 30.8369 59.7942 29.1736 61.09C27.5276 62.368 25.9867 64.6619 24.586 67.9887C23.4654 70.5801 22.2398 71.8758 20.9439 71.8758C20.121 71.8758 19.4033 71.1929 18.7729 69.8099C18.1249 68.4265 17.7922 67.726 17.7573 67.726C16.4966 67.726 15.3758 68.0588 14.378 68.7068C11.6114 70.5452 9.00259 74.5899 6.5862 80.8057C4.08239 87.1966 2.83913 93.2899 2.83913 99.0681C2.83913 111.92 7.40907 122.776 16.5315 131.618C25.6716 140.461 36.6852 144.873 49.5722 144.873C62.4592 144.873 73.5428 140.391 82.7879 131.408C92.0327 122.443 96.6553 111.517 96.6553 98.6654L96.6553 98.6655ZM51.9884 73.4693L49.6771 75.8331L47.5235 75.623L49.467 73.2592L48.189 72.804L46.8057 70.3L47.576 68.3391L51.9884 73.4693V73.4693ZM41.9206 66.4481L40.2396 67.7261L37.4206 68.1464L38.4885 64.4869H41.3078L41.9206 66.448L41.9206 66.4481ZM46.0353 73.6794L44.547 75.378L43.8816 73.4693L44.9496 71.7359L46.0353 73.6794ZM54.5973 86.5489L54.3872 88.6502L52.4436 86.5489H54.5973H54.5973Z" fill="#5D928B" stroke="#00ECC0" stroke-width="0.11111" stroke-linecap="round" stroke-linejoin="round"/>
<path d="M42.9778 49.7634V23.0295" stroke="#5D928B" stroke-width="6" stroke-linecap="round"/>
<path d="M55.066 31.6519C60.5079 31.6519 64.9194 27.2404 64.9194 21.7985C64.9194 16.3567 60.5079 11.9452 55.066 11.9452C49.6241 11.9452 45.2126 16.3567 45.2126 21.7985C45.2126 27.2404 49.6241 31.6519 55.066 31.6519Z" fill="#2ED2BE" stroke="white" stroke-width="0.003"/>
<path d="M32.1041 41.116C38.1185 41.116 42.9942 36.2404 42.9942 30.226C42.9942 24.2116 38.1185 19.3359 32.1041 19.3359C26.0897 19.3359 21.2141 24.2116 21.2141 30.226C21.2141 36.2404 26.0897 41.116 32.1041 41.116Z" fill="#2ED2BE" stroke="white" stroke-width="0.003"/>
<path d="M41.0218 23.7674C46.4637 23.7674 50.8752 19.3559 50.8752 13.9141C50.8752 8.47223 46.4637 4.06073 41.0218 4.06073C35.58 4.06073 31.1685 8.47223 31.1685 13.9141C31.1685 19.3559 35.58 23.7674 41.0218 23.7674Z" fill="#2ED2BE" stroke="white" stroke-width="0.003"/>
<path d="M28.1652 23.3081C30.8861 23.3081 33.0919 21.1023 33.0919 18.3814C33.0919 15.6605 30.8861 13.4547 28.1652 13.4547C25.4443 13.4547 23.2385 15.6605 23.2385 18.3814C23.2385 21.1023 25.4443 23.3081 28.1652 23.3081Z" fill="#83EBDF" stroke="white" stroke-width="0.003"/>
<path d="M49.6437 33.87C52.3646 33.87 54.5704 31.6643 54.5704 28.9433C54.5704 26.2224 52.3646 24.0167 49.6437 24.0167C46.9228 24.0167 44.717 26.2224 44.717 28.9433C44.717 31.6643 46.9228 33.87 49.6437 33.87Z" fill="#2ED2BE" stroke="white" stroke-width="0.003"/>
<path d="M53.095 41.259C58.5369 41.259 62.9484 36.8475 62.9484 31.4057C62.9484 25.9638 58.5369 21.5523 53.095 21.5523C47.6532 21.5523 43.2417 25.9638 43.2417 31.4057C43.2417 36.8475 47.6532 41.259 53.095 41.259Z" fill="#2ED2BE" stroke="white" stroke-width="0.003"/>
<path d="M42.9774 30.9132C46.1065 30.9132 48.6431 28.3766 48.6431 25.2475C48.6431 22.1185 46.1065 19.5818 42.9774 19.5818C39.8484 19.5818 37.3118 22.1185 37.3118 25.2475C37.3118 28.3766 39.8484 30.9132 42.9774 30.9132Z" fill="#83EBDF" stroke="white" stroke-width="0.003"/>
<path d="M82.0723 62.6136V39.5884" stroke="#5D928B" stroke-width="5" stroke-linecap="round"/>
<path d="M90.803 45.8186C94.7341 45.8186 97.9209 42.6318 97.9209 38.7007C97.9209 34.7696 94.7341 31.5828 90.803 31.5828C86.8719 31.5828 83.6851 34.7696 83.6851 38.7007C83.6851 42.6318 86.8719 45.8186 90.803 45.8186Z" fill="#2ED2BE" stroke="white" stroke-width="0.003"/>
<path d="M74.2174 52.6535C78.5622 52.6535 82.0843 49.1314 82.0843 44.7867C82.0843 40.442 78.5622 36.9199 74.2174 36.9199C69.8727 36.9199 66.3506 40.442 66.3506 44.7867C66.3506 49.1314 69.8727 52.6535 74.2174 52.6535Z" fill="#2ED2BE" stroke="white" stroke-width="0.003"/>
<path d="M80.6609 40.1219C84.5921 40.1219 87.7789 36.9351 87.7789 33.0039C87.7789 29.0728 84.5921 25.886 80.6609 25.886C76.7298 25.886 73.543 29.0728 73.543 33.0039C73.543 36.9351 76.7298 40.1219 80.6609 40.1219Z" fill="#2ED2BE" stroke="white" stroke-width="0.003"/>
<path d="M71.3737 39.7911C73.3392 39.7911 74.9326 38.1977 74.9326 36.2321C74.9326 34.2666 73.3392 32.6732 71.3737 32.6732C69.4081 32.6732 67.8147 34.2666 67.8147 36.2321C67.8147 38.1977 69.4081 39.7911 71.3737 39.7911Z" fill="#83EBDF" stroke="white" stroke-width="0.003"/>
<path d="M83.0615 31.2254C85.8625 31.2254 88.1331 28.9548 88.1331 26.1539C88.1331 23.3529 85.8625 21.0823 83.0615 21.0823C80.2606 21.0823 77.99 23.3529 77.99 26.1539C77.99 28.9548 80.2606 31.2254 83.0615 31.2254Z" fill="#2ED2BE" stroke="white" stroke-width="0.003"/>
<path d="M88.9003 35.3978C90.8659 35.3978 92.4593 33.8044 92.4593 31.8388C92.4593 29.8733 90.8659 28.2798 88.9003 28.2798C86.9347 28.2798 85.3413 29.8733 85.3413 31.8388C85.3413 33.8044 86.9347 35.3978 88.9003 35.3978Z" fill="#2ED2BE" stroke="white" stroke-width="0.003"/>
<path d="M86.89 47.4187C88.8556 47.4187 90.449 45.8253 90.449 43.8597C90.449 41.8941 88.8556 40.3007 86.89 40.3007C84.9245 40.3007 83.3311 41.8941 83.3311 43.8597C83.3311 45.8253 84.9245 47.4187 86.89 47.4187Z" fill="#2ED2BE" stroke="white" stroke-width="0.003"/>
<path d="M89.3821 52.7576C93.3132 52.7576 96.5 49.5707 96.5 45.6396C96.5 41.7085 93.3132 38.5217 89.3821 38.5217C85.451 38.5217 82.2642 41.7085 82.2642 45.6396C82.2642 49.5707 85.451 52.7576 89.3821 52.7576Z" fill="#2ED2BE" stroke="white" stroke-width="0.003"/>
<path d="M82.0755 45.2827C84.3359 45.2827 86.1683 43.4503 86.1683 41.1899C86.1683 38.9295 84.3359 37.097 82.0755 37.097C79.8151 37.097 77.9827 38.9295 77.9827 41.1899C77.9827 43.4503 79.8151 45.2827 82.0755 45.2827Z" fill="#83EBDF" stroke="white" stroke-width="0.003"/>
<path d="M15.2405 64.196V49.9423" stroke="#5D928B" stroke-width="5" stroke-linecap="round"/>
<path d="M20.5996 53.7638C23.0123 53.7638 24.9682 51.8079 24.9682 49.3952C24.9682 46.9824 23.0123 45.0266 20.5996 45.0266C18.1869 45.0266 16.231 46.9824 16.231 49.3952C16.231 51.8079 18.1869 53.7638 20.5996 53.7638Z" fill="#2ED2BE" stroke="white" stroke-width="0.003"/>
<path d="M10.4181 57.959C13.0847 57.959 15.2464 55.7973 15.2464 53.1307C15.2464 50.4642 13.0847 48.3025 10.4181 48.3025C7.75153 48.3025 5.58984 50.4642 5.58984 53.1307C5.58984 55.7973 7.75153 57.959 10.4181 57.959Z" fill="#2ED2BE" stroke="white" stroke-width="0.003"/>
<path d="M14.3701 50.269C16.7828 50.269 18.7387 48.3131 18.7387 45.9004C18.7387 43.4876 16.7828 41.5317 14.3701 41.5317C11.9574 41.5317 10.0015 43.4876 10.0015 45.9004C10.0015 48.3131 11.9574 50.269 14.3701 50.269Z" fill="#2ED2BE" stroke="white" stroke-width="0.003"/>
<path d="M8.67088 50.0659C9.87724 50.0659 10.8552 49.088 10.8552 47.8816C10.8552 46.6753 9.87724 45.6973 8.67088 45.6973C7.46452 45.6973 6.48657 46.6753 6.48657 47.8816C6.48657 49.088 7.46452 50.0659 8.67088 50.0659Z" fill="#83EBDF" stroke="white" stroke-width="0.003"/>
<path d="M15.8438 44.8084C17.5629 44.8084 18.9565 43.4148 18.9565 41.6958C18.9565 39.9767 17.5629 38.5831 15.8438 38.5831C14.1248 38.5831 12.7312 39.9767 12.7312 41.6958C12.7312 43.4148 14.1248 44.8084 15.8438 44.8084Z" fill="#2ED2BE" stroke="white" stroke-width="0.003"/>
<path d="M19.4316 47.3685C20.638 47.3685 21.6159 46.3905 21.6159 45.1842C21.6159 43.9778 20.638 42.9999 19.4316 42.9999C18.2253 42.9999 17.2473 43.9778 17.2473 45.1842C17.2473 46.3905 18.2253 47.3685 19.4316 47.3685Z" fill="#2ED2BE" stroke="white" stroke-width="0.003"/>
<path d="M18.1948 54.7466C19.4012 54.7466 20.3791 53.7687 20.3791 52.5623C20.3791 51.3559 19.4012 50.378 18.1948 50.378C16.9884 50.378 16.0105 51.3559 16.0105 52.5623C16.0105 53.7687 16.9884 54.7466 18.1948 54.7466Z" fill="#2ED2BE" stroke="white" stroke-width="0.003"/>
<path d="M19.7214 58.0232C22.1341 58.0232 24.09 56.0673 24.09 53.6546C24.09 51.2419 22.1341 49.286 19.7214 49.286C17.3087 49.286 15.3528 51.2419 15.3528 53.6546C15.3528 56.0673 17.3087 58.0232 19.7214 58.0232Z" fill="#2ED2BE" stroke="white" stroke-width="0.003"/>
<path d="M15.2393 53.4367C16.6266 53.4367 17.7512 52.312 17.7512 50.9247C17.7512 49.5374 16.6266 48.4128 15.2393 48.4128C13.8519 48.4128 12.7273 49.5374 12.7273 50.9247C12.7273 52.312 13.8519 53.4367 15.2393 53.4367Z" fill="#83EBDF" stroke="white" stroke-width="0.003"/>
</svg>
