<svg width="25" height="30" viewBox="0 0 25 30" fill="none" xmlns="http://www.w3.org/2000/svg">
<path d="M10 20V14H14V20H19V12H22L12 3L2 12H5V20H10Z" fill="#C4C4C4"/>
<path d="M5.592 22.4V28H5.008V25.416H1.504V28H0.912V22.4H1.504V24.896H5.008V22.4H5.592ZM9.01981 28.04C8.61448 28.04 8.24915 27.9493 7.92381 27.768C7.59848 27.5813 7.34248 27.3253 7.15581 27C6.96915 26.6747 6.87581 26.3067 6.87581 25.896C6.87581 25.4853 6.96915 25.1173 7.15581 24.792C7.34248 24.4667 7.59848 24.2133 7.92381 24.032C8.24915 23.8507 8.61448 23.76 9.01981 23.76C9.42515 23.76 9.79048 23.8507 10.1158 24.032C10.4411 24.2133 10.6945 24.4667 10.8758 24.792C11.0625 25.1173 11.1558 25.4853 11.1558 25.896C11.1558 26.3067 11.0625 26.6747 10.8758 27C10.6945 27.3253 10.4411 27.5813 10.1158 27.768C9.79048 27.9493 9.42515 28.04 9.01981 28.04ZM9.01981 27.536C9.31848 27.536 9.58515 27.4693 9.81981 27.336C10.0598 27.1973 10.2465 27.0027 10.3798 26.752C10.5131 26.5013 10.5798 26.216 10.5798 25.896C10.5798 25.576 10.5131 25.2907 10.3798 25.04C10.2465 24.7893 10.0598 24.5973 9.81981 24.464C9.58515 24.3253 9.31848 24.256 9.01981 24.256C8.72115 24.256 8.45181 24.3253 8.21181 24.464C7.97715 24.5973 7.79048 24.7893 7.65181 25.04C7.51848 25.2907 7.45181 25.576 7.45181 25.896C7.45181 26.216 7.51848 26.5013 7.65181 26.752C7.79048 27.0027 7.97715 27.1973 8.21181 27.336C8.45181 27.4693 8.72115 27.536 9.01981 27.536ZM17.5634 23.76C18.0914 23.76 18.5048 23.912 18.8034 24.216C19.1074 24.52 19.2594 24.968 19.2594 25.56V28H18.6914V25.616C18.6914 25.1787 18.5848 24.8453 18.3714 24.616C18.1634 24.3867 17.8674 24.272 17.4834 24.272C17.0461 24.272 16.7021 24.408 16.4514 24.68C16.2008 24.9467 16.0754 25.3173 16.0754 25.792V28H15.5074V25.616C15.5074 25.1787 15.4008 24.8453 15.1874 24.616C14.9794 24.3867 14.6808 24.272 14.2914 24.272C13.8594 24.272 13.5154 24.408 13.2594 24.68C13.0088 24.9467 12.8834 25.3173 12.8834 25.792V28H12.3154V23.792H12.8594V24.56C13.0088 24.304 13.2168 24.1067 13.4834 23.968C13.7501 23.8293 14.0568 23.76 14.4034 23.76C14.7554 23.76 15.0594 23.8347 15.3154 23.984C15.5768 24.1333 15.7714 24.3547 15.8994 24.648C16.0541 24.3707 16.2754 24.1547 16.5634 24C16.8568 23.84 17.1901 23.76 17.5634 23.76ZM24.4794 26.072H20.9594C20.9914 26.5093 21.1594 26.864 21.4634 27.136C21.7674 27.4027 22.1514 27.536 22.6154 27.536C22.8768 27.536 23.1168 27.4907 23.3354 27.4C23.5541 27.304 23.7434 27.1653 23.9034 26.984L24.2234 27.352C24.0368 27.576 23.8021 27.7467 23.5194 27.864C23.2421 27.9813 22.9354 28.04 22.5994 28.04C22.1674 28.04 21.7834 27.9493 21.4474 27.768C21.1168 27.5813 20.8581 27.3253 20.6714 27C20.4848 26.6747 20.3914 26.3067 20.3914 25.896C20.3914 25.4853 20.4794 25.1173 20.6554 24.792C20.8368 24.4667 21.0821 24.2133 21.3914 24.032C21.7061 23.8507 22.0581 23.76 22.4474 23.76C22.8368 23.76 23.1861 23.8507 23.4954 24.032C23.8048 24.2133 24.0474 24.4667 24.2234 24.792C24.3994 25.112 24.4874 25.48 24.4874 25.896L24.4794 26.072ZM22.4474 24.248C22.0421 24.248 21.7008 24.3787 21.4234 24.64C21.1514 24.896 20.9968 25.232 20.9594 25.648H23.9434C23.9061 25.232 23.7488 24.896 23.4714 24.64C23.1994 24.3787 22.8581 24.248 22.4474 24.248Z" fill="#C4C4C4"/>
</svg>
