<svg width="36" height="150" viewBox="0 0 36 150" fill="none" xmlns="http://www.w3.org/2000/svg">
<rect x="17" y="26" width="3" height="90" fill="url(#paint0_linear)"/>
<path d="M18.5 0C12.71 0 8 4.71 8 10.5C8 18.375 18.5 30 18.5 30C18.5 30 29 18.375 29 10.5C29 4.71 24.29 0 18.5 0ZM18.5 3C18.8941 2.9999 19.2843 3.07742 19.6484 3.22813C20.0125 3.37884 20.3434 3.59979 20.6221 3.87837C20.9008 4.15694 21.1219 4.48769 21.2728 4.85172C21.4237 5.21575 21.5014 5.60594 21.5015 6C21.5016 6.39406 21.4241 6.78429 21.2734 7.14839C21.1227 7.5125 20.9017 7.84336 20.6231 8.12207C20.3446 8.40079 20.0138 8.6219 19.6498 8.77279C19.2858 8.92369 18.8956 9.0014 18.5015 9.0015C17.7057 9.0017 16.9423 8.68574 16.3794 8.12313C15.8165 7.56052 15.5002 6.79735 15.5 6.0015C15.4998 5.20565 15.8158 4.44232 16.3784 3.87943C16.941 3.31654 17.7042 3.0002 18.5 3ZM18.5 18C15.995 18 13.79 16.725 12.5 14.775C12.53 12.795 16.505 11.7 18.5 11.7C20.495 11.7 24.47 12.795 24.5 14.775C23.8455 15.7676 22.9545 16.582 21.9071 17.145C20.8598 17.7079 19.689 18.0017 18.5 18Z" fill="#66D7E9"/>
<path d="M18.5 114C12.71 114 8 118.71 8 124.5C8 132.375 18.5 144 18.5 144C18.5 144 29 132.375 29 124.5C29 118.71 24.29 114 18.5 114ZM18.5 117C18.8941 117 19.2843 117.077 19.6484 117.228C20.0125 117.379 20.3434 117.6 20.6221 117.878C20.9008 118.157 21.1219 118.488 21.2728 118.852C21.4237 119.216 21.5014 119.606 21.5015 120C21.5016 120.394 21.4241 120.784 21.2734 121.148C21.1227 121.512 20.9017 121.843 20.6231 122.122C20.3446 122.401 20.0138 122.622 19.6498 122.773C19.2858 122.924 18.8956 123.001 18.5015 123.002C17.7057 123.002 16.9423 122.686 16.3794 122.123C15.8165 121.561 15.5002 120.797 15.5 120.002C15.4998 119.206 15.8158 118.442 16.3784 117.879C16.941 117.317 17.7042 117 18.5 117ZM18.5 132C15.995 132 13.79 130.725 12.5 128.775C12.53 126.795 16.505 125.7 18.5 125.7C20.495 125.7 24.47 126.795 24.5 128.775C23.8455 129.768 22.9545 130.582 21.9071 131.145C20.8598 131.708 19.689 132.002 18.5 132Z" fill="#00FFD1"/>
<defs>
<linearGradient id="paint0_linear" x1="18.5" y1="26" x2="18.5" y2="116" gradientUnits="userSpaceOnUse">
<stop stop-color="#66D7E9"/>
<stop offset="1" stop-color="#00FFD1"/>
</linearGradient>
</defs>
</svg>
