<svg width="50" height="32" viewBox="0 0 50 32" fill="none" xmlns="http://www.w3.org/2000/svg">
<path d="M20 18C18.9 18 18.01 18.9 18.01 20C18.01 21.1 18.9 22 20 22C21.1 22 22 21.1 22 20C22 18.9 21.1 18 20 18ZM14 2V4H16L19.6 11.59L18.25 14.04C18.09 14.32 18 14.65 18 15C18 16.1 18.9 17 20 17H32V15H20.42C20.28 15 20.17 14.89 20.17 14.75L20.2 14.63L21.1 13H28.55C29.3 13 29.96 12.59 30.3 11.97L33.88 5.48C33.96 5.34 34 5.17 34 5C34 4.45 33.55 4 33 4H18.21L17.27 2H14ZM30 18C28.9 18 28.01 18.9 28.01 20C28.01 21.1 28.9 22 30 22C31.1 22 32 21.1 32 20C32 18.9 31.1 18 30 18Z" fill="#C4C4C4"/>
<path d="M6.728 24.4V30H6.16V25.52L3.96 29.288H3.68L1.48 25.544V30H0.912V24.4H1.4L3.832 28.552L6.24 24.4H6.728ZM9.90463 25.76C10.454 25.76 10.8753 25.8987 11.1686 26.176C11.462 26.448 11.6086 26.8533 11.6086 27.392V30H11.0646V29.344C10.9366 29.5627 10.7473 29.7333 10.4966 29.856C10.2513 29.9787 9.95796 30.04 9.61663 30.04C9.14729 30.04 8.77396 29.928 8.49663 29.704C8.21929 29.48 8.08063 29.184 8.08063 28.816C8.08063 28.4587 8.20863 28.1707 8.46463 27.952C8.72596 27.7333 9.13929 27.624 9.70463 27.624H11.0406V27.368C11.0406 27.0053 10.9393 26.7307 10.7366 26.544C10.534 26.352 10.238 26.256 9.84863 26.256C9.58196 26.256 9.32596 26.3013 9.08063 26.392C8.83529 26.4773 8.62463 26.5973 8.44863 26.752L8.19263 26.328C8.40596 26.1467 8.66196 26.008 8.96063 25.912C9.25929 25.8107 9.57396 25.76 9.90463 25.76ZM9.70463 29.592C10.0246 29.592 10.2993 29.52 10.5286 29.376C10.758 29.2267 10.9286 29.0133 11.0406 28.736V28.048H9.72063C9.00063 28.048 8.64062 28.2987 8.64062 28.8C8.64062 29.0453 8.73396 29.24 8.92063 29.384C9.10729 29.5227 9.36863 29.592 9.70463 29.592ZM13.6954 26.616C13.8287 26.3333 14.026 26.12 14.2874 25.976C14.554 25.832 14.882 25.76 15.2714 25.76V26.312L15.1354 26.304C14.6927 26.304 14.346 26.44 14.0954 26.712C13.8447 26.984 13.7194 27.3653 13.7194 27.856V30H13.1514V25.792H13.6954V26.616ZM17.8598 27.888L16.8678 28.8V30H16.2998V24.064H16.8678V28.088L19.3798 25.792H20.0838L18.2838 27.512L20.2518 30H19.5558L17.8598 27.888ZM24.5966 28.072H21.0766C21.1086 28.5093 21.2766 28.864 21.5806 29.136C21.8846 29.4027 22.2686 29.536 22.7326 29.536C22.994 29.536 23.234 29.4907 23.4526 29.4C23.6713 29.304 23.8606 29.1653 24.0206 28.984L24.3406 29.352C24.154 29.576 23.9193 29.7467 23.6366 29.864C23.3593 29.9813 23.0526 30.04 22.7166 30.04C22.2846 30.04 21.9006 29.9493 21.5646 29.768C21.234 29.5813 20.9753 29.3253 20.7886 29C20.602 28.6747 20.5086 28.3067 20.5086 27.896C20.5086 27.4853 20.5966 27.1173 20.7726 26.792C20.954 26.4667 21.1993 26.2133 21.5086 26.032C21.8233 25.8507 22.1753 25.76 22.5646 25.76C22.954 25.76 23.3033 25.8507 23.6126 26.032C23.922 26.2133 24.1646 26.4667 24.3406 26.792C24.5166 27.112 24.6046 27.48 24.6046 27.896L24.5966 28.072ZM22.5646 26.248C22.1593 26.248 21.818 26.3787 21.5406 26.64C21.2686 26.896 21.114 27.232 21.0766 27.648H24.0606C24.0233 27.232 23.866 26.896 23.5886 26.64C23.3166 26.3787 22.9753 26.248 22.5646 26.248ZM27.9768 29.744C27.8701 29.84 27.7368 29.9147 27.5768 29.968C27.4221 30.016 27.2594 30.04 27.0888 30.04C26.6941 30.04 26.3901 29.9333 26.1768 29.72C25.9634 29.5067 25.8568 29.2053 25.8568 28.816V26.272H25.1048V25.792H25.8568V24.872H26.4248V25.792H27.7048V26.272H26.4248V28.784C26.4248 29.0347 26.4861 29.2267 26.6088 29.36C26.7368 29.488 26.9181 29.552 27.1528 29.552C27.2701 29.552 27.3821 29.5333 27.4888 29.496C27.6008 29.4587 27.6968 29.4053 27.7768 29.336L27.9768 29.744ZM31.1788 25.76C31.5734 25.76 31.9308 25.8507 32.2508 26.032C32.5708 26.208 32.8214 26.4587 33.0028 26.784C33.1841 27.1093 33.2748 27.48 33.2748 27.896C33.2748 28.3173 33.1841 28.6907 33.0028 29.016C32.8214 29.3413 32.5708 29.5947 32.2508 29.776C31.9361 29.952 31.5788 30.04 31.1788 30.04C30.8374 30.04 30.5281 29.9707 30.2508 29.832C29.9788 29.688 29.7548 29.48 29.5788 29.208V31.552H29.0108V25.792H29.5548V26.624C29.7254 26.3467 29.9494 26.1333 30.2268 25.984C30.5094 25.8347 30.8268 25.76 31.1788 25.76ZM31.1388 29.536C31.4321 29.536 31.6988 29.4693 31.9388 29.336C32.1788 29.1973 32.3654 29.0027 32.4988 28.752C32.6374 28.5013 32.7068 28.216 32.7068 27.896C32.7068 27.576 32.6374 27.2933 32.4988 27.048C32.3654 26.7973 32.1788 26.6027 31.9388 26.464C31.6988 26.3253 31.4321 26.256 31.1388 26.256C30.8401 26.256 30.5708 26.3253 30.3307 26.464C30.0961 26.6027 29.9094 26.7973 29.7708 27.048C29.6374 27.2933 29.5708 27.576 29.5708 27.896C29.5708 28.216 29.6374 28.5013 29.7708 28.752C29.9094 29.0027 30.0961 29.1973 30.3307 29.336C30.5708 29.4693 30.8401 29.536 31.1388 29.536ZM34.4326 24.064H35.0006V30H34.4326V24.064ZM38.0531 25.76C38.6024 25.76 39.0237 25.8987 39.3171 26.176C39.6104 26.448 39.7571 26.8533 39.7571 27.392V30H39.2131V29.344C39.0851 29.5627 38.8957 29.7333 38.6451 29.856C38.3997 29.9787 38.1064 30.04 37.7651 30.04C37.2957 30.04 36.9224 29.928 36.6451 29.704C36.3677 29.48 36.2291 29.184 36.2291 28.816C36.2291 28.4587 36.3571 28.1707 36.6131 27.952C36.8744 27.7333 37.2877 27.624 37.8531 27.624H39.1891V27.368C39.1891 27.0053 39.0877 26.7307 38.8851 26.544C38.6824 26.352 38.3864 26.256 37.9971 26.256C37.7304 26.256 37.4744 26.3013 37.2291 26.392C36.9837 26.4773 36.7731 26.5973 36.5971 26.752L36.3411 26.328C36.5544 26.1467 36.8104 26.008 37.1091 25.912C37.4077 25.8107 37.7224 25.76 38.0531 25.76ZM37.8531 29.592C38.1731 29.592 38.4477 29.52 38.6771 29.376C38.9064 29.2267 39.0771 29.0133 39.1891 28.736V28.048H37.8691C37.1491 28.048 36.7891 28.2987 36.7891 28.8C36.7891 29.0453 36.8824 29.24 37.0691 29.384C37.2557 29.5227 37.5171 29.592 37.8531 29.592ZM43.0594 30.04C42.6434 30.04 42.2701 29.9493 41.9394 29.768C41.6141 29.5867 41.3581 29.3333 41.1714 29.008C40.9848 28.6773 40.8914 28.3067 40.8914 27.896C40.8914 27.4853 40.9848 27.1173 41.1714 26.792C41.3581 26.4667 41.6141 26.2133 41.9394 26.032C42.2701 25.8507 42.6434 25.76 43.0594 25.76C43.4221 25.76 43.7448 25.832 44.0274 25.976C44.3154 26.1147 44.5421 26.32 44.7074 26.592L44.2834 26.88C44.1448 26.672 43.9688 26.5173 43.7554 26.416C43.5421 26.3093 43.3101 26.256 43.0594 26.256C42.7554 26.256 42.4808 26.3253 42.2354 26.464C41.9954 26.5973 41.8061 26.7893 41.6674 27.04C41.5341 27.2907 41.4674 27.576 41.4674 27.896C41.4674 28.2213 41.5341 28.5093 41.6674 28.76C41.8061 29.0053 41.9954 29.1973 42.2354 29.336C42.4808 29.4693 42.7554 29.536 43.0594 29.536C43.3101 29.536 43.5421 29.4853 43.7554 29.384C43.9688 29.2827 44.1448 29.128 44.2834 28.92L44.7074 29.208C44.5421 29.48 44.3154 29.688 44.0274 29.832C43.7394 29.9707 43.4168 30.04 43.0594 30.04ZM49.4169 28.072H45.8969C45.9289 28.5093 46.0969 28.864 46.4009 29.136C46.7049 29.4027 47.0889 29.536 47.5529 29.536C47.8143 29.536 48.0543 29.4907 48.2729 29.4C48.4916 29.304 48.6809 29.1653 48.8409 28.984L49.1609 29.352C48.9743 29.576 48.7396 29.7467 48.4569 29.864C48.1796 29.9813 47.8729 30.04 47.5369 30.04C47.1049 30.04 46.7209 29.9493 46.3849 29.768C46.0543 29.5813 45.7956 29.3253 45.6089 29C45.4223 28.6747 45.3289 28.3067 45.3289 27.896C45.3289 27.4853 45.4169 27.1173 45.5929 26.792C45.7743 26.4667 46.0196 26.2133 46.3289 26.032C46.6436 25.8507 46.9956 25.76 47.3849 25.76C47.7743 25.76 48.1236 25.8507 48.4329 26.032C48.7423 26.2133 48.9849 26.4667 49.1609 26.792C49.3369 27.112 49.4249 27.48 49.4249 27.896L49.4169 28.072ZM47.3849 26.248C46.9796 26.248 46.6383 26.3787 46.3609 26.64C46.0889 26.896 45.9343 27.232 45.8969 27.648H48.8809C48.8436 27.232 48.6863 26.896 48.4089 26.64C48.1369 26.3787 47.7956 26.248 47.3849 26.248Z" fill="#C4C4C4"/>
</svg>
