<svg width="216" height="216" viewBox="0 0 216 216" fill="none" xmlns="http://www.w3.org/2000/svg">
<circle cx="108" cy="104" r="99" fill="url(#paint0_linear)"/>
<path d="M177.132 126.89C177.787 125.175 180.213 125.175 180.868 126.89L181.79 129.302C182.073 130.042 182.766 130.546 183.557 130.586L186.136 130.717C187.969 130.81 188.719 133.118 187.291 134.271L185.281 135.893C184.665 136.39 184.4 137.205 184.606 137.97L185.279 140.463C185.756 142.236 183.794 143.662 182.256 142.659L180.092 141.25C179.428 140.817 178.572 140.817 177.908 141.25L175.744 142.659C174.206 143.662 172.244 142.236 172.721 140.463L173.394 137.97C173.6 137.205 173.335 136.39 172.719 135.893L170.709 134.271C169.281 133.118 170.031 130.81 171.864 130.717L174.443 130.586C175.234 130.546 175.927 130.042 176.21 129.302L177.132 126.89Z" fill="white"/>
<path d="M48.1317 194.89C48.7869 193.175 51.2131 193.175 51.8683 194.89L52.0388 195.336C52.3216 196.076 53.0144 196.58 53.8055 196.62L54.2828 196.644C56.1162 196.737 56.8659 199.045 55.4374 200.198L55.0656 200.498C54.4492 200.995 54.1846 201.81 54.3908 202.575L54.5152 203.036C54.9931 204.809 53.0303 206.235 51.4922 205.232L51.0919 204.972C50.4282 204.539 49.5718 204.539 48.9081 204.972L48.5078 205.232C46.9697 206.235 45.0069 204.809 45.4848 203.036L45.6092 202.575C45.8154 201.81 45.5508 200.995 44.9344 200.498L44.5626 200.198C43.1341 199.045 43.8838 196.737 45.7172 196.644L46.1945 196.62C46.9856 196.58 47.6784 196.076 47.9612 195.336L48.1317 194.89Z" fill="white"/>
<path d="M177.397 38.886C177.784 37.8738 179.216 37.8738 179.603 38.886C179.77 39.3227 180.178 39.6198 180.645 39.6435C181.727 39.6985 182.17 41.0604 181.327 41.7409C180.963 42.0346 180.807 42.5153 180.929 42.9667C181.211 44.0128 180.052 44.8545 179.144 44.2629C178.753 44.0077 178.247 44.0077 177.856 44.2629C176.948 44.8545 175.789 44.0128 176.071 42.9667C176.193 42.5153 176.037 42.0346 175.673 41.7409C174.83 41.0604 175.273 39.6985 176.355 39.6435C176.822 39.6198 177.23 39.3227 177.397 38.886Z" fill="white"/>
<circle cx="46.5" cy="122.5" r="3.5" fill="white"/>
<circle cx="101.5" cy="51.5" r="4.5" fill="white"/>
<path d="M164.118 155.085L80.4282 68.2L62.7406 49.8538L54 58.6462L73.2706 78.0308V78.1C69.6918 84.9538 67.7647 93.0538 67.7647 101.777V136.392L54 150.238V157.162H148.495L162.259 171.008L171 162.215L164.118 155.085ZM109.059 178C116.698 178 122.824 171.838 122.824 164.154H95.2941C95.2941 171.838 101.419 178 109.059 178ZM150.353 127.323V101.846C150.353 80.5231 139.066 62.8 119.382 58.0923V53.3846C119.382 47.6385 114.771 43 109.059 43C103.346 43 98.7353 47.6385 98.7353 53.3846V58.0923C97.7029 58.3 96.7394 58.6462 95.8447 58.9231C95.1565 59.1308 94.4682 59.4077 93.78 59.6846H93.7112C93.6424 59.6846 93.6424 59.6846 93.5735 59.7538C91.9906 60.3769 90.4076 61.1385 88.8935 61.9C88.8935 61.9 88.8247 61.9 88.8247 61.9692L150.353 127.323Z" fill="#C0F1EA"/>
<defs>
<linearGradient id="paint0_linear" x1="35.6648" y1="19.029" x2="83.6146" y2="217.337" gradientUnits="userSpaceOnUse">
<stop offset="0.255208" stop-color="#14F0C8"/>
<stop offset="1" stop-color="#30C1B0" stop-opacity="0.9"/>
</linearGradient>
</defs>
</svg>
