<svg width="48" height="32" viewBox="0 0 48 32" fill="none" xmlns="http://www.w3.org/2000/svg">
<path d="M24 22C25.1 22 26 21.1 26 20H22C22 21.1 22.9 22 24 22ZM30 16V11C30 7.93 28.37 5.36 25.5 4.68V4C25.5 3.17 24.83 2.5 24 2.5C23.17 2.5 22.5 3.17 22.5 4V4.68C19.64 5.36 18 7.92 18 11V16L16 18V19H32V18L30 16ZM28 17H20V11C20 8.52 21.51 6.5 24 6.5C26.49 6.5 28 8.52 28 11V17Z" fill="#C4C4C4"/>
<path d="M5.592 24.4V30H5.104L1.504 25.456V30H0.912V24.4H1.4L5.008 28.944V24.4H5.592ZM9.01981 30.04C8.61448 30.04 8.24915 29.9493 7.92381 29.768C7.59848 29.5813 7.34248 29.3253 7.15581 29C6.96915 28.6747 6.87581 28.3067 6.87581 27.896C6.87581 27.4853 6.96915 27.1173 7.15581 26.792C7.34248 26.4667 7.59848 26.2133 7.92381 26.032C8.24915 25.8507 8.61448 25.76 9.01981 25.76C9.42515 25.76 9.79048 25.8507 10.1158 26.032C10.4411 26.2133 10.6945 26.4667 10.8758 26.792C11.0625 27.1173 11.1558 27.4853 11.1558 27.896C11.1558 28.3067 11.0625 28.6747 10.8758 29C10.6945 29.3253 10.4411 29.5813 10.1158 29.768C9.79048 29.9493 9.42515 30.04 9.01981 30.04ZM9.01981 29.536C9.31848 29.536 9.58515 29.4693 9.81981 29.336C10.0598 29.1973 10.2465 29.0027 10.3798 28.752C10.5131 28.5013 10.5798 28.216 10.5798 27.896C10.5798 27.576 10.5131 27.2907 10.3798 27.04C10.2465 26.7893 10.0598 26.5973 9.81981 26.464C9.58515 26.3253 9.31848 26.256 9.01981 26.256C8.72115 26.256 8.45181 26.3253 8.21181 26.464C7.97715 26.5973 7.79048 26.7893 7.65181 27.04C7.51848 27.2907 7.45181 27.576 7.45181 27.896C7.45181 28.216 7.51848 28.5013 7.65181 28.752C7.79048 29.0027 7.97715 29.1973 8.21181 29.336C8.45181 29.4693 8.72115 29.536 9.01981 29.536ZM14.5314 29.744C14.4248 29.84 14.2914 29.9147 14.1314 29.968C13.9768 30.016 13.8141 30.04 13.6434 30.04C13.2488 30.04 12.9448 29.9333 12.7314 29.72C12.5181 29.5067 12.4114 29.2053 12.4114 28.816V26.272H11.6594V25.792H12.4114V24.872H12.9794V25.792H14.2594V26.272H12.9794V28.784C12.9794 29.0347 13.0408 29.2267 13.1634 29.36C13.2914 29.488 13.4728 29.552 13.7074 29.552C13.8248 29.552 13.9368 29.5333 14.0434 29.496C14.1554 29.4587 14.2514 29.4053 14.3314 29.336L14.5314 29.744ZM15.5654 25.792H16.1334V30H15.5654V25.792ZM15.8534 24.872C15.7361 24.872 15.6374 24.832 15.5574 24.752C15.4774 24.672 15.4374 24.576 15.4374 24.464C15.4374 24.3573 15.4774 24.264 15.5574 24.184C15.6374 24.104 15.7361 24.064 15.8534 24.064C15.9708 24.064 16.0694 24.104 16.1494 24.184C16.2294 24.2587 16.2694 24.3493 16.2694 24.456C16.2694 24.5733 16.2294 24.672 16.1494 24.752C16.0694 24.832 15.9708 24.872 15.8534 24.872ZM19.1059 24.504C18.8605 24.504 18.6739 24.5707 18.5459 24.704C18.4232 24.8373 18.3619 25.0347 18.3619 25.296V25.792H19.6579V26.272H18.3779V30H17.8099V26.272H17.0579V25.792H17.8099V25.272C17.8099 24.888 17.9192 24.584 18.1379 24.36C18.3619 24.136 18.6765 24.024 19.0819 24.024C19.2419 24.024 19.3965 24.048 19.5459 24.096C19.6952 24.1387 19.8205 24.2027 19.9219 24.288L19.7299 24.712C19.5645 24.5733 19.3565 24.504 19.1059 24.504ZM21.0659 25.792H21.6339V30H21.0659V25.792ZM21.3539 24.872C21.2365 24.872 21.1379 24.832 21.0579 24.752C20.9779 24.672 20.9379 24.576 20.9379 24.464C20.9379 24.3573 20.9779 24.264 21.0579 24.184C21.1379 24.104 21.2365 24.064 21.3539 24.064C21.4712 24.064 21.5699 24.104 21.6499 24.184C21.7299 24.2587 21.7699 24.3493 21.7699 24.456C21.7699 24.5733 21.7299 24.672 21.6499 24.752C21.5699 24.832 21.4712 24.872 21.3539 24.872ZM24.9657 30.04C24.5497 30.04 24.1764 29.9493 23.8457 29.768C23.5204 29.5867 23.2644 29.3333 23.0777 29.008C22.891 28.6773 22.7977 28.3067 22.7977 27.896C22.7977 27.4853 22.891 27.1173 23.0777 26.792C23.2644 26.4667 23.5204 26.2133 23.8457 26.032C24.1764 25.8507 24.5497 25.76 24.9657 25.76C25.3284 25.76 25.651 25.832 25.9337 25.976C26.2217 26.1147 26.4484 26.32 26.6137 26.592L26.1897 26.88C26.051 26.672 25.875 26.5173 25.6617 26.416C25.4484 26.3093 25.2164 26.256 24.9657 26.256C24.6617 26.256 24.387 26.3253 24.1417 26.464C23.9017 26.5973 23.7124 26.7893 23.5737 27.04C23.4404 27.2907 23.3737 27.576 23.3737 27.896C23.3737 28.2213 23.4404 28.5093 23.5737 28.76C23.7124 29.0053 23.9017 29.1973 24.1417 29.336C24.387 29.4693 24.6617 29.536 24.9657 29.536C25.2164 29.536 25.4484 29.4853 25.6617 29.384C25.875 29.2827 26.051 29.128 26.1897 28.92L26.6137 29.208C26.4484 29.48 26.2217 29.688 25.9337 29.832C25.6457 29.9707 25.323 30.04 24.9657 30.04ZM29.2015 25.76C29.7508 25.76 30.1722 25.8987 30.4655 26.176C30.7588 26.448 30.9055 26.8533 30.9055 27.392V30H30.3615V29.344C30.2335 29.5627 30.0442 29.7333 29.7935 29.856C29.5482 29.9787 29.2548 30.04 28.9135 30.04C28.4442 30.04 28.0708 29.928 27.7935 29.704C27.5162 29.48 27.3775 29.184 27.3775 28.816C27.3775 28.4587 27.5055 28.1707 27.7615 27.952C28.0228 27.7333 28.4362 27.624 29.0015 27.624H30.3375V27.368C30.3375 27.0053 30.2362 26.7307 30.0335 26.544C29.8308 26.352 29.5348 26.256 29.1455 26.256C28.8788 26.256 28.6228 26.3013 28.3775 26.392C28.1322 26.4773 27.9215 26.5973 27.7455 26.752L27.4895 26.328C27.7028 26.1467 27.9588 26.008 28.2575 25.912C28.5562 25.8107 28.8708 25.76 29.2015 25.76ZM29.0015 29.592C29.3215 29.592 29.5962 29.52 29.8255 29.376C30.0548 29.2267 30.2255 29.0133 30.3375 28.736V28.048H29.0175C28.2975 28.048 27.9375 28.2987 27.9375 28.8C27.9375 29.0453 28.0308 29.24 28.2175 29.384C28.4042 29.5227 28.6655 29.592 29.0015 29.592ZM34.6643 29.744C34.5576 29.84 34.4243 29.9147 34.2643 29.968C34.1096 30.016 33.9469 30.04 33.7763 30.04C33.3816 30.04 33.0776 29.9333 32.8643 29.72C32.6509 29.5067 32.5443 29.2053 32.5443 28.816V26.272H31.7923V25.792H32.5443V24.872H33.1123V25.792H34.3923V26.272H33.1123V28.784C33.1123 29.0347 33.1736 29.2267 33.2963 29.36C33.4243 29.488 33.6056 29.552 33.8403 29.552C33.9576 29.552 34.0696 29.5333 34.1763 29.496C34.2883 29.4587 34.3843 29.4053 34.4643 29.336L34.6643 29.744ZM35.6983 25.792H36.2663V30H35.6983V25.792ZM35.9863 24.872C35.8689 24.872 35.7703 24.832 35.6903 24.752C35.6103 24.672 35.5703 24.576 35.5703 24.464C35.5703 24.3573 35.6103 24.264 35.6903 24.184C35.7703 24.104 35.8689 24.064 35.9863 24.064C36.1036 24.064 36.2023 24.104 36.2823 24.184C36.3623 24.2587 36.4023 24.3493 36.4023 24.456C36.4023 24.5733 36.3623 24.672 36.2823 24.752C36.2023 24.832 36.1036 24.872 35.9863 24.872ZM39.5667 30.04C39.1614 30.04 38.796 29.9493 38.4707 29.768C38.1454 29.5813 37.8894 29.3253 37.7027 29C37.516 28.6747 37.4227 28.3067 37.4227 27.896C37.4227 27.4853 37.516 27.1173 37.7027 26.792C37.8894 26.4667 38.1454 26.2133 38.4707 26.032C38.796 25.8507 39.1614 25.76 39.5667 25.76C39.972 25.76 40.3374 25.8507 40.6627 26.032C40.988 26.2133 41.2414 26.4667 41.4227 26.792C41.6094 27.1173 41.7027 27.4853 41.7027 27.896C41.7027 28.3067 41.6094 28.6747 41.4227 29C41.2414 29.3253 40.988 29.5813 40.6627 29.768C40.3374 29.9493 39.972 30.04 39.5667 30.04ZM39.5667 29.536C39.8654 29.536 40.132 29.4693 40.3667 29.336C40.6067 29.1973 40.7934 29.0027 40.9267 28.752C41.06 28.5013 41.1267 28.216 41.1267 27.896C41.1267 27.576 41.06 27.2907 40.9267 27.04C40.7934 26.7893 40.6067 26.5973 40.3667 26.464C40.132 26.3253 39.8654 26.256 39.5667 26.256C39.268 26.256 38.9987 26.3253 38.7587 26.464C38.524 26.5973 38.3374 26.7893 38.1987 27.04C38.0654 27.2907 37.9987 27.576 37.9987 27.896C37.9987 28.216 38.0654 28.5013 38.1987 28.752C38.3374 29.0027 38.524 29.1973 38.7587 29.336C38.9987 29.4693 39.268 29.536 39.5667 29.536ZM45.0063 25.76C45.5343 25.76 45.953 25.9147 46.2623 26.224C46.577 26.528 46.7343 26.9733 46.7343 27.56V30H46.1663V27.616C46.1663 27.1787 46.057 26.8453 45.8383 26.616C45.6196 26.3867 45.3076 26.272 44.9023 26.272C44.449 26.272 44.089 26.408 43.8223 26.68C43.561 26.9467 43.4303 27.3173 43.4303 27.792V30H42.8623V25.792H43.4063V26.568C43.561 26.312 43.7743 26.1147 44.0463 25.976C44.3236 25.832 44.6436 25.76 45.0063 25.76Z" fill="#C4C4C4"/>
</svg>
