<svg width="144" height="32" viewBox="0 0 144 32" fill="none" xmlns="http://www.w3.org/2000/svg">
<path d="M30.5 16.5H112" stroke="#14F0C8" stroke-width="2"/>
<circle cx="16" cy="16" r="15" fill="#14F0C8" stroke="#14F0C8" stroke-width="2"/>
<circle cx="128" cy="16" r="15" fill="white" stroke="#14F0C8" stroke-width="2"/>
<path d="M126.968 18.52C127.992 17.6347 128.797 16.9093 129.384 16.344C129.981 15.768 130.477 15.1707 130.872 14.552C131.267 13.9333 131.464 13.3147 131.464 12.696C131.464 12.056 131.309 11.5547 131 11.192C130.701 10.8293 130.227 10.648 129.576 10.648C128.947 10.648 128.456 10.8507 128.104 11.256C127.763 11.6507 127.581 12.184 127.56 12.856H125.8C125.832 11.64 126.195 10.712 126.888 10.072C127.592 9.42133 128.483 9.096 129.56 9.096C130.723 9.096 131.629 9.416 132.28 10.056C132.941 10.696 133.272 11.5493 133.272 12.616C133.272 13.384 133.075 14.1253 132.68 14.84C132.296 15.544 131.832 16.1787 131.288 16.744C130.755 17.2987 130.072 17.944 129.24 18.68L128.52 19.32H133.592V20.84H125.816V19.512L126.968 18.52Z" fill="#14F0C8"/>
<path d="M12.9999 20.2L8.7999 16L7.3999 17.4L12.9999 23L24.9999 11L23.5999 9.59998L12.9999 20.2Z" fill="white"/>
</svg>
