<svg width="33" height="30" viewBox="0 0 33 30" fill="none" xmlns="http://www.w3.org/2000/svg">
<path d="M6.42903 11.9156H0.918528C0.403953 11.9156 2.28882e-05 12.3196 2.28882e-05 12.8342V27.5286C2.28882e-05 28.0432 0.403953 28.4471 0.918528 28.4471H6.42903C6.9436 28.4471 7.347 28.0432 7.347 27.5286V12.8342C7.34753 12.3196 6.9436 11.9156 6.42903 11.9156Z" fill="white"/>
<path d="M32.9995 13.6563C32.9995 12.1597 31.9719 10.6451 30.0095 10.6451H21.1119C22.383 8.37133 22.7567 5.17324 21.8731 2.8333C21.2241 1.11223 19.9837 0.107959 18.3786 0.00578558L18.3526 0.00366789C17.3081 -0.0603892 16.4039 0.722061 16.3171 1.76497C16.0884 4.08585 15.0714 8.1908 13.614 9.64823C12.3869 10.8754 11.3365 11.3894 9.59535 12.2407C9.34336 12.364 9.06807 12.4985 8.77691 12.6436C8.7822 12.7066 8.78537 12.7696 8.78537 12.8341V27.3788C8.99555 27.4508 9.20307 27.5223 9.40689 27.5922C12.2805 28.5827 14.7639 29.4376 18.5596 29.4376H25.7531C27.7161 29.4376 28.7431 27.9225 28.7431 26.4264C28.7431 25.9823 28.6531 25.537 28.4747 25.1294C29.1285 25.0119 29.7008 24.6974 30.1249 24.2162C30.6061 23.6693 30.8713 22.9425 30.8713 22.1695C30.8713 21.727 30.7813 21.2817 30.6034 20.8752C32.1795 20.6031 33 19.2504 33 17.9132C33 17.1376 32.7237 16.3568 32.1847 15.785C32.7226 15.2127 32.9995 14.4319 32.9995 13.6563Z" fill="white"/>
</svg>
