<svg width="100" height="100" viewBox="0 0 100 100" fill="none" xmlns="http://www.w3.org/2000/svg">
<circle cx="50" cy="50" r="50" fill="white"/>
<path d="M50.4698 44.1514C39.043 44.1514 29.7473 35.1426 29.7473 24.0684C29.7473 12.9941 39.043 4 50.4698 4C61.8967 4 71.1923 13.0088 71.1923 24.083C71.1923 35.1572 61.8967 44.1514 50.4698 44.1514ZM50.4698 6.98828C40.7509 6.98828 32.8459 14.6494 32.8459 24.0684C32.8459 33.4873 40.7509 41.1631 50.4698 41.1631C60.1887 41.1631 68.0938 33.502 68.0938 24.083C68.0938 14.6641 60.1887 6.98828 50.4698 6.98828Z" fill="#92D4CA"/>
<mask id="path-3-inside-1" fill="white">
<path d="M86.4281 79C85.5816 79 84.8863 78.3262 84.8863 77.5058C84.8863 59.1221 69.4541 44.166 50.4849 44.166C31.5157 44.166 16.0834 59.1221 16.0834 77.5058C16.0834 78.3262 15.3881 79 14.5417 79C13.6953 79 13 78.3262 13 77.5058C13 67.7939 16.8996 58.668 23.9885 51.8125C31.0774 44.957 40.494 41.1631 50.5 41.1631C60.5061 41.1631 69.9377 44.9424 77.0115 51.8125C84.0853 58.6826 88 67.8086 88 77.5058C87.9698 78.3262 87.2745 79 86.4281 79Z"/>
</mask>
<path d="M86.4281 79C85.5816 79 84.8863 78.3262 84.8863 77.5058C84.8863 59.1221 69.4541 44.166 50.4849 44.166C31.5157 44.166 16.0834 59.1221 16.0834 77.5058C16.0834 78.3262 15.3881 79 14.5417 79C13.6953 79 13 78.3262 13 77.5058C13 67.7939 16.8996 58.668 23.9885 51.8125C31.0774 44.957 40.494 41.1631 50.5 41.1631C60.5061 41.1631 69.9377 44.9424 77.0115 51.8125C84.0853 58.6826 88 67.8086 88 77.5058C87.9698 78.3262 87.2745 79 86.4281 79Z" fill="#92D4CA"/>
<path d="M88 77.5058L112.983 78.4265L113 77.9663V77.5058H88ZM86.4281 54C98.6443 54 109.886 63.7862 109.886 77.5058H59.8863C59.8863 92.8661 72.5189 104 86.4281 104V54ZM109.886 77.5058C109.886 44.582 82.5167 19.166 50.4849 19.166V69.166C56.3914 69.166 59.8863 73.6621 59.8863 77.5058H109.886ZM50.4849 19.166C18.4531 19.166 -8.91656 44.582 -8.91656 77.5058H41.0834C41.0834 73.6621 44.5784 69.166 50.4849 69.166V19.166ZM-8.91656 77.5058C-8.91656 63.7861 2.3255 54 14.5417 54V104C28.4508 104 41.0834 92.8662 41.0834 77.5058H-8.91656ZM14.5417 54C26.7579 54 38 63.7861 38 77.5058H-12C-12 92.8662 0.63263 104 14.5417 104V54ZM38 77.5058C38 74.6773 39.0714 72.0043 41.3679 69.7835L6.60918 33.8414C-5.27217 45.3316 -12 60.9106 -12 77.5058H38ZM41.3679 69.7835C43.7407 67.4889 46.904 66.1631 50.5 66.1631V16.1631C34.0839 16.1631 18.4141 22.4252 6.60918 33.8414L41.3679 69.7835ZM50.5 66.1631C54.1342 66.1631 57.2797 67.4989 59.5939 69.7464L94.4291 33.8786C82.5957 22.3858 66.8779 16.1631 50.5 16.1631V66.1631ZM59.5939 69.7464C61.9358 72.021 63 74.7248 63 77.5058H113C113 60.8924 106.235 45.3442 94.4291 33.8786L59.5939 69.7464ZM63.017 76.5852C63.4887 63.783 74.0093 54 86.4281 54V104C100.54 104 112.451 92.8693 112.983 78.4265L63.017 76.5852Z" fill="#92D4CA" mask="url(#path-3-inside-1)"/>
</svg>
