<svg width="159" height="153" viewBox="0 0 159 153" fill="none" xmlns="http://www.w3.org/2000/svg">
<g filter="url(#filter0_d)">
<path d="M21.9202 76.5679C21.9202 46.1922 46.5445 21.5679 76.9202 21.5679H82.6428C113.018 21.5679 137.643 46.1922 137.643 76.5679C137.643 106.944 113.018 131.568 82.6428 131.568H76.9202C46.5445 131.568 21.9202 106.944 21.9202 76.5679Z" fill="white"/>
</g>
<path d="M79.7815 40.0679C59.6335 40.0679 43.2815 56.4199 43.2815 76.5679C43.2815 96.7159 59.6335 113.068 79.7815 113.068C99.9295 113.068 116.281 96.7159 116.281 76.5679C116.281 56.4199 99.9295 40.0679 79.7815 40.0679ZM79.7815 51.0179C85.8405 51.0179 90.7315 55.9089 90.7315 61.9679C90.7315 68.0269 85.8405 72.9179 79.7815 72.9179C73.7225 72.9179 68.8315 68.0269 68.8315 61.9679C68.8315 55.9089 73.7225 51.0179 79.7815 51.0179ZM79.7815 102.848C70.6565 102.848 62.59 98.1759 57.8815 91.0949C57.991 83.8314 72.4815 79.8529 79.7815 79.8529C87.045 79.8529 101.572 83.8314 101.681 91.0949C96.973 98.1759 88.9065 102.848 79.7815 102.848Z" fill="#83EBDF"/>
<defs>
<filter id="filter0_d" x="0.920166" y="0.567871" width="157.723" height="152" filterUnits="userSpaceOnUse" color-interpolation-filters="sRGB">
<feFlood flood-opacity="0" result="BackgroundImageFix"/>
<feColorMatrix in="SourceAlpha" type="matrix" values="0 0 0 0 0 0 0 0 0 0 0 0 0 0 0 0 0 0 127 0"/>
<feMorphology radius="5" operator="dilate" in="SourceAlpha" result="effect1_dropShadow"/>
<feOffset/>
<feGaussianBlur stdDeviation="8"/>
<feColorMatrix type="matrix" values="0 0 0 0 0 0 0 0 0 0 0 0 0 0 0 0 0 0 0.05 0"/>
<feBlend mode="normal" in2="BackgroundImageFix" result="effect1_dropShadow"/>
<feBlend mode="normal" in="SourceGraphic" in2="effect1_dropShadow" result="shape"/>
</filter>
</defs>
</svg>
