<svg width="55" height="55" viewBox="0 0 55 55" fill="none" xmlns="http://www.w3.org/2000/svg">
<circle cx="27.6923" cy="27.6923" r="27.3077" fill="#1773A6"/>
<path d="M37.9163 22.134H33.6563L34.1959 21.9364C34.9373 21.6588 35.5956 21.1984 36.1087 20.5984C36.6218 19.9985 36.973 19.2786 37.1292 18.5066C37.2854 17.7347 37.2415 16.9359 37.0016 16.1854C36.7617 15.4349 36.3337 14.7574 35.7579 14.2165C35.1773 13.6794 34.4683 13.2985 33.6981 13.11C32.9279 12.9215 32.122 12.9316 31.3568 13.1394C30.5916 13.3472 29.8925 13.7458 29.3258 14.2974C28.759 14.8489 28.3434 15.5352 28.1183 16.2912L27.6923 17.9001L27.2237 16.3194C26.8995 15.166 26.1368 14.183 25.0969 13.5781C24.0569 12.9732 22.8211 12.7938 21.6505 13.0778C20.4799 13.3618 19.4662 14.0869 18.8236 15.1C18.181 16.1131 17.9598 17.3347 18.2067 18.5069C18.3571 19.28 18.7052 20.0017 19.2175 20.6023C19.7299 21.203 20.3891 21.6624 21.1319 21.9364L21.6857 22.134H17.4257C16.3798 22.1488 15.3815 22.5712 14.6458 23.3103C13.9102 24.0494 13.4959 25.046 13.4923 26.0856V37.9406C13.4961 38.9875 13.9162 39.9905 14.661 40.7308C15.4058 41.4711 16.415 41.8886 17.4683 41.8923H37.9163C38.9697 41.8886 39.9788 41.4711 40.7236 40.7308C41.4685 39.9905 41.8886 38.9875 41.8923 37.9406V26.0856C41.8886 25.0387 41.4685 24.0358 40.7236 23.2955C39.9788 22.5552 38.9697 22.1377 37.9163 22.134ZM30.8873 17.0956C30.9679 16.7995 31.1259 16.5298 31.3454 16.3141C31.5649 16.0985 31.838 15.9444 32.1369 15.8678C32.2977 15.8178 32.4655 15.7939 32.6339 15.7972C32.8959 15.7994 33.1542 15.8583 33.391 15.9699C33.6277 16.0814 33.8372 16.2428 34.0048 16.443C34.1723 16.6431 34.294 16.8771 34.3614 17.1288C34.4287 17.3804 34.4401 17.6436 34.3947 17.9001C34.3384 18.2005 34.2039 18.4811 34.0046 18.7138C33.8053 18.9466 33.5481 19.1234 33.2587 19.2267L29.8649 20.4828L30.8873 17.0956ZM20.9899 17.9001C20.9445 17.6436 20.9559 17.3804 21.0232 17.1288C21.0906 16.8771 21.2123 16.6431 21.3799 16.443C21.5474 16.2428 21.7569 16.0814 21.9936 15.9699C22.2304 15.8583 22.4887 15.7994 22.7507 15.7972C22.9191 15.7939 23.087 15.8178 23.2477 15.8678C23.5466 15.9444 23.8197 16.0985 24.0392 16.3141C24.2587 16.5298 24.4168 16.7995 24.4973 17.0956L25.5197 20.5392L22.1259 19.3114C21.8253 19.2011 21.5606 19.0114 21.3604 18.7627C21.1602 18.5141 21.0321 18.2158 20.9899 17.9001ZM39.0523 37.9406C39.0523 38.2401 38.9326 38.5273 38.7196 38.739C38.5065 38.9507 38.2176 39.0697 37.9163 39.0697H17.4683C17.167 39.0697 16.8781 38.9507 16.665 38.739C16.452 38.5273 16.3323 38.2401 16.3323 37.9406V30.6018H39.0523V37.9406ZM39.0523 27.7792H16.3323V26.0856C16.3323 25.7862 16.452 25.499 16.665 25.2873C16.8781 25.0756 17.167 24.9566 17.4683 24.9566H37.9163C38.2176 24.9566 38.5065 25.0756 38.7196 25.2873C38.9326 25.499 39.0523 25.7862 39.0523 26.0856V27.7792Z" fill="#80DDD0"/>
</svg>
