<svg width="38" height="38" viewBox="0 0 38 38" fill="none" xmlns="http://www.w3.org/2000/svg">
<circle cx="19" cy="19" r="19" fill="#2AD2BE"/>
<path d="M10.6 14.6C10.96 14.6 11.2 14.36 11.2 14V9.2H16C16.3599 9.2 16.5999 8.96 16.5999 8.6C16.5999 8.24 16.3599 8 16 8H10.6C10.24 8 10 8.24 10 8.6V14C10 14.36 10.24 14.6 10.6 14.6Z" fill="white"/>
<path d="M27.4 8H22C21.6401 8 21.4001 8.24 21.4001 8.6C21.4001 8.96 21.6401 9.2 22 9.2H26.8V14C26.8 14.36 27.04 14.6 27.4 14.6C27.76 14.6 28 14.36 28 14V8.6C28 8.24 27.76 8 27.4 8Z" fill="white"/>
<path d="M16 24.8H11.2V20C11.2 19.64 10.96 19.4 10.6 19.4C10.24 19.4 10 19.64 10 20V25.4C10 25.76 10.24 26 10.6 26H16C16.3599 26 16.5999 25.76 16.5999 25.4C16.5999 25.04 16.3599 24.8 16 24.8Z" fill="white"/>
<path d="M27.4001 19.4C27.0401 19.4 26.8001 19.64 26.8001 20V24.8H22.0001C21.6401 24.8 21.4001 25.04 21.4001 25.4C21.4001 25.76 21.6401 26 22.0001 26H27.4001C27.7601 26 28.0001 25.76 28.0001 25.4V20C28.0001 19.64 27.7601 19.4 27.4001 19.4Z" fill="white"/>
<path d="M12.4001 11V23C12.4001 23.36 12.6401 23.6 13.0001 23.6C13.3601 23.6 13.6001 23.36 13.6001 23V11C13.6001 10.64 13.3601 10.4 13.0001 10.4C12.6401 10.4 12.4001 10.64 12.4001 11Z" fill="white"/>
<path d="M19.0001 10.4C18.6401 10.4 18.4001 10.64 18.4001 11V23C18.4001 23.36 18.6401 23.6 19.0001 23.6C19.3601 23.6 19.6001 23.36 19.6001 23V11C19.6001 10.64 19.3601 10.4 19.0001 10.4Z" fill="white"/>
<path d="M14.2 11V23C14.2 23.36 14.4399 23.6 14.7999 23.6C15.1599 23.6 15.3999 23.36 15.3999 23V11C15.3999 10.64 15.1599 10.4 14.7999 10.4C14.4399 10.4 14.2 10.64 14.2 11Z" fill="white"/>
<path d="M17.1998 10.4C16.8399 10.4 16.5999 10.64 16.5999 11V23C16.5999 23.36 16.8399 23.6 17.1998 23.6C17.5598 23.6 17.7998 23.36 17.7998 23V11C17.7998 10.64 17.5598 10.4 17.1998 10.4Z" fill="white"/>
<path d="M23.7998 23V11C23.7998 10.64 23.5598 10.4 23.1998 10.4C22.8399 10.4 22.5999 10.64 22.5999 11V23C22.5999 23.36 22.8399 23.6 23.1998 23.6C23.5598 23.6 23.7998 23.36 23.7998 23Z" fill="white"/>
<path d="M25.6001 23V11C25.6001 10.64 25.3601 10.4 25.0001 10.4C24.6401 10.4 24.4001 10.64 24.4001 11V23C24.4001 23.36 24.6401 23.6 25.0001 23.6C25.3601 23.6 25.6001 23.36 25.6001 23Z" fill="white"/>
<path d="M21.3999 11C21.3999 10.64 21.1599 10.4 20.7999 10.4C20.4399 10.4 20.2 10.64 20.2 11V23C20.2 23.36 20.4399 23.6 20.7999 23.6C21.1599 23.6 21.3999 23.36 21.3999 23V11Z" fill="white"/>
</svg>
