<svg width="34" height="29" viewBox="0 0 34 29" fill="none" xmlns="http://www.w3.org/2000/svg">
<path d="M8.6 6.60001C8.95999 6.60001 9.19999 6.36001 9.19999 6.00001V1.2H14C14.3599 1.2 14.5999 0.960001 14.5999 0.600001C14.5999 0.24 14.3599 0 14 0H8.6C8.24 0 8 0.24 8 0.600001V6.00001C8 6.36001 8.24 6.60001 8.6 6.60001Z" fill="#C4C4C4"/>
<path d="M25.4 0H20C19.6401 0 19.4001 0.24 19.4001 0.600001C19.4001 0.960001 19.6401 1.2 20 1.2H24.8V6.00001C24.8 6.36001 25.04 6.60001 25.4 6.60001C25.76 6.60001 26 6.36001 26 6.00001V0.600001C26 0.24 25.76 0 25.4 0Z" fill="#C4C4C4"/>
<path d="M14 16.8H9.19999V12C9.19999 11.64 8.95999 11.4 8.6 11.4C8.24 11.4 8 11.64 8 12V17.4C8 17.76 8.24 18 8.6 18H14C14.3599 18 14.5999 17.76 14.5999 17.4C14.5999 17.04 14.3599 16.8 14 16.8Z" fill="#C4C4C4"/>
<path d="M25.4001 11.4C25.0401 11.4 24.8001 11.64 24.8001 12V16.8H20.0001C19.6401 16.8 19.4001 17.04 19.4001 17.4C19.4001 17.76 19.6401 18 20.0001 18H25.4001C25.7601 18 26.0001 17.76 26.0001 17.4V12C26.0001 11.64 25.7601 11.4 25.4001 11.4Z" fill="#C4C4C4"/>
<path d="M10.4001 2.99997V15C10.4001 15.36 10.6401 15.6 11.0001 15.6C11.3601 15.6 11.6001 15.36 11.6001 15V2.99997C11.6001 2.63997 11.3601 2.39997 11.0001 2.39997C10.6401 2.39997 10.4001 2.63997 10.4001 2.99997Z" fill="#C4C4C4"/>
<path d="M17.0001 2.39997C16.6401 2.39997 16.4001 2.63997 16.4001 2.99997V15C16.4001 15.36 16.6401 15.6 17.0001 15.6C17.3601 15.6 17.6001 15.36 17.6001 15V2.99997C17.6001 2.63997 17.3601 2.39997 17.0001 2.39997Z" fill="#C4C4C4"/>
<path d="M12.2 2.99997V15C12.2 15.36 12.4399 15.6 12.7999 15.6C13.1599 15.6 13.3999 15.36 13.3999 15V2.99997C13.3999 2.63997 13.1599 2.39997 12.7999 2.39997C12.4399 2.39997 12.2 2.63997 12.2 2.99997Z" fill="#C4C4C4"/>
<path d="M15.1998 2.39997C14.8399 2.39997 14.5999 2.63997 14.5999 2.99997V15C14.5999 15.36 14.8399 15.6 15.1998 15.6C15.5598 15.6 15.7998 15.36 15.7998 15V2.99997C15.7998 2.63997 15.5598 2.39997 15.1998 2.39997Z" fill="#C4C4C4"/>
<path d="M21.7998 15V2.99997C21.7998 2.63997 21.5598 2.39997 21.1998 2.39997C20.8399 2.39997 20.5999 2.63997 20.5999 2.99997V15C20.5999 15.36 20.8399 15.6 21.1998 15.6C21.5598 15.6 21.7998 15.36 21.7998 15Z" fill="#C4C4C4"/>
<path d="M23.6001 15V2.99997C23.6001 2.63997 23.3601 2.39997 23.0001 2.39997C22.6401 2.39997 22.4001 2.63997 22.4001 2.99997V15C22.4001 15.36 22.6401 15.6 23.0001 15.6C23.3601 15.6 23.6001 15.36 23.6001 15Z" fill="#C4C4C4"/>
<path d="M19.3999 2.99997C19.3999 2.63997 19.1599 2.39997 18.7999 2.39997C18.4399 2.39997 18.2 2.63997 18.2 2.99997V15C18.2 15.36 18.4399 15.6 18.7999 15.6C19.1599 15.6 19.3999 15.36 19.3999 15V2.99997Z" fill="#C4C4C4"/>
<path d="M2.456 27.048C2.04 27.048 1.64 26.9813 1.256 26.848C0.877333 26.7147 0.584 26.5387 0.376 26.32L0.608 25.864C0.810667 26.0667 1.08 26.232 1.416 26.36C1.752 26.4827 2.09867 26.544 2.456 26.544C2.95733 26.544 3.33333 26.4533 3.584 26.272C3.83467 26.0853 3.96 25.8453 3.96 25.552C3.96 25.328 3.89067 25.1493 3.752 25.016C3.61867 24.8827 3.45333 24.7813 3.256 24.712C3.05867 24.6373 2.784 24.5573 2.432 24.472C2.01067 24.3653 1.67467 24.264 1.424 24.168C1.17333 24.0667 0.957333 23.9147 0.776 23.712C0.6 23.5093 0.512 23.2347 0.512 22.888C0.512 22.6053 0.586667 22.3493 0.736 22.12C0.885333 21.8853 1.11467 21.6987 1.424 21.56C1.73333 21.4213 2.11733 21.352 2.576 21.352C2.896 21.352 3.208 21.3973 3.512 21.488C3.82133 21.5733 4.088 21.6933 4.312 21.848L4.112 22.32C3.87733 22.1653 3.62667 22.0507 3.36 21.976C3.09333 21.896 2.832 21.856 2.576 21.856C2.08533 21.856 1.71467 21.952 1.464 22.144C1.21867 22.3307 1.096 22.5733 1.096 22.872C1.096 23.096 1.16267 23.2773 1.296 23.416C1.43467 23.5493 1.60533 23.6533 1.808 23.728C2.016 23.7973 2.29333 23.8747 2.64 23.96C3.05067 24.0613 3.38133 24.1627 3.632 24.264C3.888 24.36 4.104 24.5093 4.28 24.712C4.456 24.9093 4.544 25.1787 4.544 25.52C4.544 25.8027 4.46667 26.0613 4.312 26.296C4.16267 26.5253 3.93067 26.7093 3.616 26.848C3.30133 26.9813 2.91467 27.048 2.456 27.048ZM7.45788 27.04C7.04188 27.04 6.66854 26.9493 6.33788 26.768C6.01254 26.5867 5.75654 26.3333 5.56988 26.008C5.38321 25.6773 5.28988 25.3067 5.28988 24.896C5.28988 24.4853 5.38321 24.1173 5.56988 23.792C5.75654 23.4667 6.01254 23.2133 6.33788 23.032C6.66854 22.8507 7.04188 22.76 7.45788 22.76C7.82054 22.76 8.14321 22.832 8.42588 22.976C8.71388 23.1147 8.94054 23.32 9.10588 23.592L8.68188 23.88C8.54321 23.672 8.36721 23.5173 8.15388 23.416C7.94054 23.3093 7.70854 23.256 7.45788 23.256C7.15388 23.256 6.87921 23.3253 6.63388 23.464C6.39388 23.5973 6.20454 23.7893 6.06588 24.04C5.93254 24.2907 5.86588 24.576 5.86588 24.896C5.86588 25.2213 5.93254 25.5093 6.06588 25.76C6.20454 26.0053 6.39388 26.1973 6.63388 26.336C6.87921 26.4693 7.15388 26.536 7.45788 26.536C7.70854 26.536 7.94054 26.4853 8.15388 26.384C8.36721 26.2827 8.54321 26.128 8.68188 25.92L9.10588 26.208C8.94054 26.48 8.71388 26.688 8.42588 26.832C8.13788 26.9707 7.81521 27.04 7.45788 27.04ZM11.6937 22.76C12.243 22.76 12.6644 22.8987 12.9577 23.176C13.251 23.448 13.3977 23.8533 13.3977 24.392V27H12.8537V26.344C12.7257 26.5627 12.5364 26.7333 12.2857 26.856C12.0404 26.9787 11.747 27.04 11.4057 27.04C10.9364 27.04 10.563 26.928 10.2857 26.704C10.0084 26.48 9.86969 26.184 9.86969 25.816C9.86969 25.4587 9.99769 25.1707 10.2537 24.952C10.515 24.7333 10.9284 24.624 11.4937 24.624H12.8297V24.368C12.8297 24.0053 12.7284 23.7307 12.5257 23.544C12.323 23.352 12.027 23.256 11.6377 23.256C11.371 23.256 11.115 23.3013 10.8697 23.392C10.6244 23.4773 10.4137 23.5973 10.2377 23.752L9.98169 23.328C10.195 23.1467 10.451 23.008 10.7497 22.912C11.0484 22.8107 11.363 22.76 11.6937 22.76ZM11.4937 26.592C11.8137 26.592 12.0884 26.52 12.3177 26.376C12.547 26.2267 12.7177 26.0133 12.8297 25.736V25.048H11.5097C10.7897 25.048 10.4297 25.2987 10.4297 25.8C10.4297 26.0453 10.523 26.24 10.7097 26.384C10.8964 26.5227 11.1577 26.592 11.4937 26.592ZM17.0844 22.76C17.6124 22.76 18.0311 22.9147 18.3404 23.224C18.6551 23.528 18.8124 23.9733 18.8124 24.56V27H18.2444V24.616C18.2444 24.1787 18.1351 23.8453 17.9164 23.616C17.6978 23.3867 17.3858 23.272 16.9804 23.272C16.5271 23.272 16.1671 23.408 15.9004 23.68C15.6391 23.9467 15.5084 24.3173 15.5084 24.792V27H14.9404V22.792H15.4844V23.568C15.6391 23.312 15.8524 23.1147 16.1244 22.976C16.4018 22.832 16.7218 22.76 17.0844 22.76ZM22.4985 22.76C23.0265 22.76 23.4452 22.9147 23.7545 23.224C24.0692 23.528 24.2265 23.9733 24.2265 24.56V27H23.6585V24.616C23.6585 24.1787 23.5492 23.8453 23.3305 23.616C23.1118 23.3867 22.7998 23.272 22.3945 23.272C21.9412 23.272 21.5812 23.408 21.3145 23.68C21.0532 23.9467 20.9225 24.3173 20.9225 24.792V27H20.3545V22.792H20.8985V23.568C21.0532 23.312 21.2665 23.1147 21.5385 22.976C21.8158 22.832 22.1358 22.76 22.4985 22.76ZM29.4482 25.072H25.9282C25.9602 25.5093 26.1282 25.864 26.4322 26.136C26.7362 26.4027 27.1202 26.536 27.5842 26.536C27.8455 26.536 28.0855 26.4907 28.3042 26.4C28.5229 26.304 28.7122 26.1653 28.8722 25.984L29.1922 26.352C29.0055 26.576 28.7709 26.7467 28.4882 26.864C28.2109 26.9813 27.9042 27.04 27.5682 27.04C27.1362 27.04 26.7522 26.9493 26.4162 26.768C26.0855 26.5813 25.8269 26.3253 25.6402 26C25.4535 25.6747 25.3602 25.3067 25.3602 24.896C25.3602 24.4853 25.4482 24.1173 25.6242 23.792C25.8055 23.4667 26.0509 23.2133 26.3602 23.032C26.6749 22.8507 27.0269 22.76 27.4162 22.76C27.8055 22.76 28.1549 22.8507 28.4642 23.032C28.7735 23.2133 29.0162 23.4667 29.1922 23.792C29.3682 24.112 29.4562 24.48 29.4562 24.896L29.4482 25.072ZM27.4162 23.248C27.0109 23.248 26.6695 23.3787 26.3922 23.64C26.1202 23.896 25.9655 24.232 25.9282 24.648H28.9122C28.8749 24.232 28.7175 23.896 28.4402 23.64C28.1682 23.3787 27.8269 23.248 27.4162 23.248ZM31.1563 23.616C31.2896 23.3333 31.487 23.12 31.7483 22.976C32.015 22.832 32.343 22.76 32.7323 22.76V23.312L32.5963 23.304C32.1536 23.304 31.807 23.44 31.5563 23.712C31.3056 23.984 31.1803 24.3653 31.1803 24.856V27H30.6123V22.792H31.1563V23.616Z" fill="#C4C4C4"/>
</svg>
