<svg width="74" height="74" viewBox="0 0 74 74" fill="none" xmlns="http://www.w3.org/2000/svg">
<g filter="url(#filter0_d)">
<circle cx="37" cy="30" r="29" fill="url(#paint0_linear)"/>
</g>
<path d="M51.1667 15.8334H22.8334C22.4577 15.8334 22.0974 15.9826 21.8317 16.2483C21.566 16.514 21.4167 16.8743 21.4167 17.25V28.5834C21.4167 28.9591 21.566 29.3194 21.8317 29.5851C22.0974 29.8508 22.4577 30 22.8334 30H27.0834V42.75C27.0834 43.1258 27.2327 43.4861 27.4983 43.7518C27.764 44.0175 28.1244 44.1667 28.5001 44.1667H45.5001C45.8758 44.1667 46.2361 44.0175 46.5018 43.7518C46.7675 43.4861 46.9167 43.1258 46.9167 42.75V30H51.1667C51.5425 30 51.9028 29.8508 52.1685 29.5851C52.4342 29.3194 52.5834 28.9591 52.5834 28.5834V17.25C52.5834 16.8743 52.4342 16.514 52.1685 16.2483C51.9028 15.9826 51.5425 15.8334 51.1667 15.8334ZM29.9167 41.3334V38.5C30.6682 38.5 31.3889 38.7986 31.9202 39.3299C32.4516 39.8613 32.7501 40.5819 32.7501 41.3334H29.9167ZM44.0834 41.3334H41.2501C41.2501 40.5819 41.5486 39.8613 42.0799 39.3299C42.6113 38.7986 43.332 38.5 44.0834 38.5V41.3334ZM44.0834 35.6667C42.5805 35.6667 41.1392 36.2637 40.0765 37.3264C39.0138 38.3891 38.4167 39.8305 38.4167 41.3334H35.5834C35.5834 39.8305 34.9864 38.3891 33.9237 37.3264C32.861 36.2637 31.4196 35.6667 29.9167 35.6667V24.3334H44.0834V35.6667ZM49.7501 27.1667H46.9167V22.9167C46.9167 22.541 46.7675 22.1806 46.5018 21.915C46.2361 21.6493 45.8758 21.5 45.5001 21.5H28.5001C28.1244 21.5 27.764 21.6493 27.4983 21.915C27.2327 22.1806 27.0834 22.541 27.0834 22.9167V27.1667H24.2501V18.6667H49.7501V27.1667ZM37.0001 34.25C37.8407 34.25 38.6623 34.0008 39.3613 33.5338C40.0602 33.0668 40.6049 32.403 40.9266 31.6264C41.2482 30.8499 41.3324 29.9953 41.1684 29.1709C41.0044 28.3465 40.5997 27.5892 40.0053 26.9948C39.4109 26.4005 38.6536 25.9957 37.8292 25.8317C37.0048 25.6677 36.1503 25.7519 35.3737 26.0736C34.5971 26.3952 33.9333 26.94 33.4663 27.6389C32.9993 28.3378 32.7501 29.1595 32.7501 30C32.7501 31.1272 33.1978 32.2082 33.9949 33.0052C34.7919 33.8023 35.8729 34.25 37.0001 34.25ZM37.0001 28.5834C37.2803 28.5834 37.5542 28.6665 37.7871 28.8221C38.0201 28.9778 38.2017 29.199 38.3089 29.4579C38.4161 29.7168 38.4442 30.0016 38.3895 30.2764C38.3349 30.5512 38.1999 30.8037 38.0018 31.0018C37.8037 31.1999 37.5513 31.3348 37.2765 31.3895C37.0017 31.4441 36.7168 31.4161 36.4579 31.3089C36.1991 31.2016 35.9778 31.0201 35.8222 30.7871C35.6665 30.5541 35.5834 30.2802 35.5834 30C35.5834 29.6243 35.7327 29.264 35.9983 28.9983C36.264 28.7326 36.6244 28.5834 37.0001 28.5834Z" fill="white"/>
<defs>
<filter id="filter0_d" x="0" y="0" width="74" height="74" filterUnits="userSpaceOnUse" color-interpolation-filters="sRGB">
<feFlood flood-opacity="0" result="BackgroundImageFix"/>
<feColorMatrix in="SourceAlpha" type="matrix" values="0 0 0 0 0 0 0 0 0 0 0 0 0 0 0 0 0 0 127 0"/>
<feMorphology radius="5" operator="erode" in="SourceAlpha" result="effect1_dropShadow"/>
<feOffset dy="7"/>
<feGaussianBlur stdDeviation="6.5"/>
<feColorMatrix type="matrix" values="0 0 0 0 0 0 0 0 0 0 0 0 0 0 0 0 0 0 0.7 0"/>
<feBlend mode="normal" in2="BackgroundImageFix" result="effect1_dropShadow"/>
<feBlend mode="normal" in="SourceGraphic" in2="effect1_dropShadow" result="shape"/>
</filter>
<linearGradient id="paint0_linear" x1="15.8109" y1="5.1095" x2="29.8568" y2="63.1996" gradientUnits="userSpaceOnUse">
<stop offset="0.255208" stop-color="#14F0C8"/>
<stop offset="1" stop-color="#30C1B0" stop-opacity="0.9"/>
</linearGradient>
</defs>
</svg>
