<svg width="95" height="95" viewBox="0 0 95 95" fill="none" xmlns="http://www.w3.org/2000/svg">
<path d="M47.5 0C21.3 0 0 21.3 0 47.5C0 73.7 21.3 95 47.5 95C73.7 95 95 73.7 95 47.5C95 21.3 73.7 0 47.5 0ZM47.5 82.8C28 82.8 12.2 67 12.2 47.5C12.2 28 28 12.2 47.5 12.2C67 12.2 82.8 28 82.8 47.5C82.8 67 67 82.8 47.5 82.8Z" fill="#5ED8A2"/>
<path d="M59.4 32.5L42.4 49.5L35.5 42.6C33.1 40.2 29.3 40.2 26.9 42.6C24.5 45 24.5 48.8 26.9 51.2L38.1 62.5C39.2 63.6 40.8 64.3 42.4 64.3C44 64.3 45.6 63.7 46.7 62.5L68.1 41.1C70.5 38.7 70.5 34.9 68.1 32.5C65.7 30.1 61.8 30.1 59.4 32.5Z" fill="#5ED8A2"/>
</svg>
