<svg width="216" height="292" viewBox="0 0 216 292" fill="none" xmlns="http://www.w3.org/2000/svg">
<circle cx="108" cy="104.019" r="99" fill="url(#paint0_linear)"/>
<path d="M92.7173 148.89C92.7813 148.952 92.8635 148.992 92.9518 149.003C93.0401 149.015 93.1298 148.998 93.2077 148.955C93.0419 148.957 92.8766 148.936 92.7173 148.89Z" fill="url(#paint1_linear)"/>
<path d="M147.633 59.6183C146.663 59.3381 145.278 58.88 143.613 58.298C145.343 56.0716 146.609 53.5207 147.337 50.7962L147.196 50.8501C147.245 50.6831 147.293 50.5214 147.337 50.3489C144.141 51.6477 140.606 49.4489 138.354 46.625C136.101 43.8011 134.582 40.2981 132.114 37.7006C131.085 36.6672 129.979 35.7141 128.805 34.8497C128.078 34.3108 127.296 33.7018 126.407 33.6748C124.968 33.6317 123.842 35.0437 122.457 35.4587C121.546 35.6638 120.597 35.6285 119.704 35.3563C116.131 34.5371 112.698 33.0227 109.05 32.6239C107.098 32.3829 105.117 32.6063 103.268 33.276C101.436 33.9712 100.601 35.3563 99.119 36.4664C97.5024 37.6574 94.3446 37.6305 92.464 37.8407C90.1819 38.1013 87.884 38.1968 85.5881 38.1263C84.2687 38.0119 82.9403 38.0608 81.6328 38.2718C78.9008 38.87 76.7076 41.0418 74.6599 43.1221C74.101 43.5926 73.6988 44.2224 73.5068 44.9274C73.4805 45.126 73.4805 45.3271 73.5068 45.5256C73.4862 46.0689 73.5798 46.6106 73.7816 47.1154C74.4119 48.9861 75.3026 50.7585 76.4274 52.3806C77.2627 53.577 78.238 54.7034 78.7122 56.1207C78.937 56.8175 79.0551 57.5443 79.0625 58.2764C79.0392 59.0538 78.9582 59.8284 78.82 60.5937C78.4584 62.7097 77.8638 64.7792 77.0471 66.7643C76.5401 67.7834 76.1912 68.8737 76.0125 69.9978C75.9971 70.2275 75.9971 70.458 76.0125 70.6876C75.8778 74.2445 79.4666 76.8044 80.1617 80.3396C80.2189 80.6329 80.2531 80.9302 80.2641 81.2289C80.1887 83.433 78.9331 85.5887 77.0794 86.4456C77.2411 86.5102 77.4081 86.5641 77.5752 86.618C77.4158 86.7181 77.2502 86.8081 77.0794 86.8875C77.4189 87.0168 77.7638 87.13 78.1141 87.2216C76.0074 89.0567 74.2367 91.2452 72.8817 93.6886C66.647 105.297 24.4217 128.034 24.4217 128.034L25.0467 128.389L24.5402 128.718C20.8867 131.149 12.3134 138.235 20.0623 147.198C20.0623 147.198 26.1137 137.648 30.3545 133.579C30.5432 133.396 30.7318 133.229 30.8934 133.073C30.9866 133.216 31.049 133.377 31.0769 133.546C31.1047 133.715 31.0973 133.888 31.0551 134.053L58.8173 118.452C58.8173 118.452 68.6839 111.543 71.4375 109.985C73.3756 108.778 75.4848 107.869 77.6937 107.291L77.3704 107.426C78.4085 107.14 79.4786 106.988 80.5551 106.973C85.4696 107.048 90.7935 110.648 92.5448 124.903C94.8943 143.991 93.8058 147.435 93.0514 147.904C92.9584 147.897 92.8663 147.881 92.7766 147.855C92.7999 147.876 92.8251 147.894 92.852 147.909C92.7498 147.902 92.6486 147.884 92.5502 147.855C92.6045 147.905 92.6707 147.94 92.7423 147.957C92.814 147.974 92.8889 147.972 92.9598 147.952C93.0108 147.968 93.0644 147.972 93.1173 147.966C93.1702 147.959 93.2212 147.942 93.2669 147.914C93.3908 147.922 93.5149 147.922 93.6387 147.914C93.6387 148.09 93.6262 148.27 93.601 148.453C93.5633 148.453 93.3801 148.556 93.601 148.567C93.5417 149.644 93.5471 150.814 93.601 152.037C91.16 152.172 88.7189 152.317 86.5958 152.447L86.7844 151.439L86.8706 150.986C88.7458 150.835 90.5241 150.286 90.7343 148.766C91.1923 145.425 86.6066 143.641 82.7052 143.42C78.8038 143.199 55.4063 144.756 55.4063 144.756C55.4063 144.756 51.8983 149.299 63.0259 150.684C63.3564 150.857 63.6995 151.037 64.0551 151.223C68.4145 153.708 74.3258 158.283 77.1603 160.536L77.5536 160.848L76.2819 161.883C83.1632 163.441 89.8182 189.74 93.4879 201.763C97.1575 213.786 105.187 213.35 111.842 211.566C118.076 209.895 118.847 191.788 118.949 189.513V189.282L130.039 202.981L130.88 204.021C131.203 204.19 131.523 204.348 131.839 204.495C140.234 208.489 149.508 200.831 146.873 192.1C144.206 183.3 140.067 170.285 137.308 164.783C134.997 160.175 132.011 152.522 130.201 147.731C130.436 147.637 130.664 147.527 130.885 147.402C130.885 147.402 130.842 147.187 130.772 146.793L130.885 146.734C130.885 146.734 128.191 132.873 128.072 123.022C128.072 122.849 128.072 122.67 128.072 122.483C128.072 122.375 128.072 122.267 128.072 122.165C130.077 121.707 131.348 121.529 131.348 121.529L131.386 121.098L131.154 121.146L132.27 108.379C132.27 108.379 136.365 99.6652 133.229 96.0383C132.276 94.9776 131.639 93.6706 131.392 92.2659C130.853 88.93 131.392 83.363 138.693 78.7391C149.934 71.6092 154.32 65.8051 154.32 65.8051C154.32 65.8051 154.514 61.6446 147.633 59.6183ZM125.308 68.4781V62.577C127.393 62.4746 129.522 62.7171 131.618 62.577C132.647 62.5051 133.666 62.3336 134.662 62.065L135.169 62.4153C132.102 64.7744 128.797 66.8064 125.308 68.4781ZM93.434 160.978C94.2584 161.549 95.0883 162.142 95.902 162.74C96.4085 165.65 96.8558 167.703 96.8881 167.849C95.9581 165.454 94.8015 163.153 93.434 160.978Z" fill="url(#paint2_linear)"/>
<path d="M111.249 156.127L110.764 158.763L110.392 160.778L109.713 164.464L103.128 169.072C103.128 169.072 102.535 168.566 101.554 167.763C98.8601 165.542 93.1859 161.037 89.0205 158.601C87.9501 157.917 86.7917 157.383 85.5771 157.011L111.249 156.127Z" fill="#FFBDC6"/>
<path opacity="0.1" d="M111.249 156.127L110.764 158.763C109.312 158.843 107.856 158.769 106.42 158.542L91.0574 158.763C90.3299 158.72 89.651 158.66 89.0151 158.596C87.9447 157.912 86.7863 157.377 85.5718 157.006L111.249 156.127Z" fill="black"/>
<path d="M106.42 158.111C106.42 158.111 114.105 159.426 114.541 156.133C114.978 152.84 110.591 151.105 106.868 150.857C103.144 150.609 80.7435 152.183 80.7435 152.183C80.7435 152.183 76.7936 157.448 91.0574 158.326L106.42 158.111Z" fill="#5D928B"/>
<path opacity="0.1" d="M111.249 156.127L110.764 158.763L110.392 160.778L109.713 164.464L103.128 169.072C103.128 169.072 102.535 168.566 101.554 167.763C98.8601 165.542 93.1859 161.037 89.0205 158.601C87.9501 157.917 86.7917 157.383 85.5771 157.011L111.249 156.127Z" fill="black"/>
<path opacity="0.1" d="M111.249 156.127L110.764 158.763C109.312 158.843 107.856 158.769 106.42 158.542L91.0574 158.763C90.3299 158.72 89.651 158.66 89.0151 158.596C87.9447 157.912 86.7863 157.377 85.5718 157.006L111.249 156.127Z" fill="black"/>
<path opacity="0.1" d="M106.42 158.111C106.42 158.111 114.105 159.426 114.541 156.133C114.978 152.84 110.591 151.105 106.868 150.857C103.144 150.609 80.7435 152.183 80.7435 152.183C80.7435 152.183 76.7936 157.448 91.0574 158.326L106.42 158.111Z" fill="black"/>
<path d="M123.206 49.8909H83.0449V97.5203H123.206V49.8909Z" fill="#5D928B"/>
<path opacity="0.1" d="M123.206 49.8909H83.0449V97.5203H123.206V49.8909Z" fill="black"/>
<path d="M35.9695 131.434C35.3067 131.601 34.466 132.237 33.523 133.164C29.4654 137.174 23.678 146.578 23.678 146.578C16.2632 137.751 24.4701 130.772 27.9889 128.373C28.8403 127.791 29.4115 127.479 29.4115 127.479L35.9695 131.434Z" fill="#FFBDC6"/>
<path d="M110.812 64.9265C110.812 64.9265 112.79 78.7551 119.591 82.0479C126.391 85.3407 110.812 91.4843 110.812 91.4843L89.522 83.5838C89.522 83.5838 101.593 79.6336 99.1784 67.9983L110.812 64.9265Z" fill="#FFBDC6"/>
<path d="M88.0074 148.114L87.5225 150.749L87.1506 152.765L86.4717 156.451L79.8867 161.059C79.8867 161.059 79.294 160.552 78.3133 159.749C75.6189 157.529 69.9447 153.023 65.7793 150.587C64.7089 149.904 63.5505 149.369 62.3359 148.998L88.0074 148.114Z" fill="#FFBDC6"/>
<path opacity="0.1" d="M88.0074 148.114L87.5225 150.749C86.071 150.83 84.615 150.756 83.1792 150.528L67.8162 150.749C67.0887 150.706 66.4098 150.647 65.7739 150.582C64.7035 149.898 63.5451 149.364 62.3306 148.992L88.0074 148.114Z" fill="black"/>
<path d="M83.1577 150.091C83.1577 150.091 90.8419 151.406 91.2784 148.114C91.7148 144.821 87.3285 143.064 83.5942 142.848C79.8598 142.633 57.4754 144.163 57.4754 144.163C57.4754 144.163 53.5256 149.429 67.7893 150.307L83.1577 150.091Z" fill="#5D928B"/>
<path opacity="0.1" d="M87.1293 152.77L86.4504 156.456L79.8655 161.064C79.8655 161.064 79.2727 160.557 78.292 159.754L87 152.614L87.1293 152.77Z" fill="black"/>
<path d="M130.578 203.019C130.276 202.871 129.971 202.715 129.662 202.55L128.859 201.526L118.254 188.053V188.29C118.184 190.527 117.419 208.365 111.459 210.008C105.095 211.765 97.4107 212.202 93.9027 200.351C90.3947 188.5 84.0253 162.6 77.4404 161.064L87.2046 153.05C87.2046 153.05 93.671 160.595 96.3114 167.86C96.2145 167.396 91.7473 146.535 95.4331 142.849H127.474C127.474 142.849 132.41 156.936 135.816 163.92C138.456 169.342 142.417 182.157 144.976 190.828C147.509 199.408 138.661 206.953 130.578 203.019Z" fill="#5D928B"/>
<path opacity="0.1" d="M129.683 146.793C124.742 149.72 103.015 148.529 95.9342 148.055L94.0105 147.914C93.8003 147.914 94.0428 147.796 94.0428 147.796L94.2422 145.802L99.5069 132.415L127.711 116.075C127.14 117.794 126.946 120.43 126.994 123.453C127.134 133.143 129.683 146.793 129.683 146.793Z" fill="black"/>
<path d="M129.683 146.141C124.742 149.068 103.015 147.877 95.9341 147.402L94.0103 147.262H93.6924L94.0427 147.171L95.7778 146.713L99.5067 131.785L127.711 115.434C127.14 117.153 126.946 119.788 126.994 122.812C127.134 132.485 129.683 146.141 129.683 146.141Z" fill="#92D4CA"/>
<path opacity="0.1" d="M126.995 122.79C121.261 124.111 108.641 127.996 103.791 137.341C100.558 143.582 97.8636 146.26 95.9399 147.381L94.0161 147.241L94.0484 147.122L95.7836 146.664L99.5125 131.736L127.717 115.385C127.135 117.153 126.946 119.767 126.995 122.79Z" fill="black"/>
<path opacity="0.1" d="M29.3845 127.484L35.9694 131.434C35.3066 131.601 34.466 132.237 33.523 133.164C32.9841 131.548 29.5246 129.327 27.9619 128.379C28.8133 127.797 29.3845 127.484 29.3845 127.484Z" fill="black"/>
<path opacity="0.1" d="M92.8575 147.516C92.784 147.557 92.6994 147.573 92.616 147.562C92.5326 147.552 92.4548 147.514 92.394 147.456C92.5447 147.499 92.7009 147.519 92.8575 147.516Z" fill="black"/>
<path d="M107.735 81.1697C107.735 81.1697 101.808 81.8271 97.6369 77.4403C97.6369 77.4403 80.0807 82.49 74.1532 93.9042C68.2257 105.319 27.8433 127.705 27.8433 127.705C27.8433 127.705 34.8485 131.655 34.2072 133.633L60.7625 118.269C60.7625 118.269 70.198 111.462 72.833 109.926C75.4681 108.39 89.9527 98.9539 93.0242 124.633C96.0958 150.313 93.0242 147.268 93.0242 147.268C93.0242 147.268 97.416 148.804 103.802 136.489C110.187 124.175 129.92 121.346 129.92 121.346L130.998 108.412C130.998 108.412 134.916 99.8323 131.914 96.2539C130.999 95.201 130.391 93.9163 130.157 92.5408C129.656 89.2534 130.157 83.7726 137.163 79.2188C147.94 72.2128 152.089 66.4896 152.089 66.4896C152.089 66.4896 152.31 62.3183 145.725 60.3459C139.14 58.3735 112.364 47.6167 112.364 47.6167L111.486 51.346L132.555 66.274C132.555 66.274 122.021 74.832 113.695 74.6164C113.663 74.5787 115.198 80.9487 107.735 81.1697Z" fill="#07FFE2"/>
<path opacity="0.1" d="M111.804 70.9463C111.285 69.1777 110.88 67.3776 110.591 65.5571L98.9574 68.6505C99.4667 70.8708 99.3756 73.1866 98.6934 75.36C101.071 75.9944 103.583 75.9135 105.915 75.1275C108.247 74.3415 110.295 72.8852 111.804 70.9409V70.9463Z" fill="black"/>
<path d="M102.142 75.1337C109.052 75.1337 114.654 69.5312 114.654 62.6201C114.654 55.709 109.052 50.1064 102.142 50.1064C95.2314 50.1064 89.6294 55.709 89.6294 62.6201C89.6294 69.5312 95.2314 75.1337 102.142 75.1337Z" fill="#FFBDC6"/>
<path opacity="0.1" d="M108.791 34.1599C112.262 34.5533 115.565 36.0461 118.981 36.8545C119.835 37.1222 120.745 37.1576 121.616 36.9569C122.942 36.5473 124.02 35.1569 125.388 35.2C126.234 35.2 127.005 35.8036 127.684 36.3587C128.809 37.2121 129.866 38.1508 130.847 39.1664C133.202 41.7263 134.668 45.1753 136.818 47.9562C138.968 50.737 142.357 52.9034 145.413 51.6262C143.338 59.7099 136.527 65.8913 129.166 66.3925C126.229 66.5919 123.238 65.9829 120.377 66.8452C119.668 67.1343 118.92 67.3159 118.157 67.3841C116.54 67.3841 115.204 65.8805 114.18 64.4201C111.788 60.9818 109.869 57.08 107.175 53.9489C106.286 52.9142 105.235 51.928 103.979 51.7393C102.724 51.5507 101.565 52.1489 100.444 52.731C98.5961 53.6902 96.7047 54.6818 95.2714 56.3201C93.838 57.9584 92.9327 60.4105 93.5254 62.6308C93.8434 63.8272 94.5762 64.9051 94.6032 66.1608C94.6032 68.1548 92.868 69.6152 92.5178 71.5499C92.4406 72.3667 92.4118 73.1873 92.4315 74.0074C92.2753 76.6696 90.5401 78.8576 88.7188 80.5229C88.0129 81.175 87.2261 81.8702 87.0213 82.878C86.8812 83.5624 87.0213 84.2899 86.9297 84.9851C86.6657 86.715 84.9413 87.5881 83.4163 87.8144C81.6353 88.0755 79.8168 87.8598 78.1463 87.1893C80.3017 86.1815 81.5896 83.3091 81.0938 80.7223C80.4149 77.16 76.8368 74.6056 77.1386 70.9733C77.3073 69.861 77.6415 68.7801 78.1301 67.7667C78.9109 65.8071 79.4782 63.769 79.8221 61.6877C80.1747 60.0859 80.1396 58.423 79.7197 56.8375C79.2617 55.4417 78.3295 54.3315 77.532 53.1513C76.4519 51.5468 75.5996 49.8002 74.9993 47.9615C74.7818 47.4181 74.6986 46.8302 74.7568 46.2478C74.9306 45.5607 75.3059 44.9413 75.8345 44.4694C77.796 42.4161 79.8976 40.2766 82.5057 39.6838C83.7518 39.4762 85.0193 39.4273 86.2777 39.5383C88.4748 39.6082 90.6741 39.5145 92.8572 39.258C94.6571 39.0479 97.707 39.0748 99.2266 37.9C100.644 36.8221 101.447 35.4479 103.198 34.7581C104.985 34.1037 106.906 33.8983 108.791 34.1599Z" fill="black"/>
<path opacity="0.1" d="M115.749 163.371C115.749 163.371 122.991 177.636 120.798 182.028L115.749 163.371Z" fill="black"/>
<path opacity="0.1" d="M128.881 201.526L118.276 188.053V188.29C118.276 188.29 117.662 183.936 119.682 185.401C124.106 188.603 131.187 193.852 131.338 194.757C131.489 195.662 129.905 199.295 128.881 201.526Z" fill="black"/>
<g opacity="0.1">
<path opacity="0.1" d="M113.873 74.5785C113.873 74.5785 114.768 78.2862 111.874 80.1401C116.33 79.3748 116.524 75.9096 116.39 74.4006C115.558 74.5353 114.716 74.5948 113.873 74.5785Z" fill="black"/>
<path opacity="0.1" d="M30.484 126.827C30.484 126.827 70.8664 104.44 76.7939 93.0257C81.0456 84.8341 91.2894 79.9246 96.7319 77.8013C92.7605 79.1324 79.3966 84.2359 74.3744 93.9041C68.4469 105.318 28.0645 127.705 28.0645 127.705L30.484 126.827Z" fill="black"/>
<path opacity="0.1" d="M121.73 72.8379C128.6 70.6822 135.169 65.3631 135.169 65.3631L114.1 50.4351L114.579 48.3872L112.564 47.5789L111.686 51.3082L132.755 66.2362C129.374 68.8942 125.669 71.1125 121.73 72.8379Z" fill="black"/>
<path opacity="0.1" d="M121.864 123.421C124.556 122.501 127.319 121.804 130.125 121.335L130.163 120.909C127.336 121.53 124.561 122.37 121.864 123.421Z" fill="black"/>
<path opacity="0.1" d="M96.3275 146.416H96.1335C96.0601 146.457 95.9755 146.473 95.8921 146.463C95.8087 146.452 95.7309 146.415 95.6701 146.357C95.8209 146.399 95.977 146.419 96.1335 146.416C96.8556 145.996 97.9387 142.719 95.6701 123.749C93.2452 103.497 83.7289 105.087 78.5181 107.415C83.842 105.949 91.1706 107.215 93.256 124.628C95.5246 143.598 94.4415 146.88 93.7194 147.295C94.6554 147.26 95.5612 146.955 96.3275 146.416Z" fill="black"/>
<path opacity="0.1" d="M93.7198 147.3C93.5632 147.303 93.4071 147.283 93.2563 147.241C93.3171 147.299 93.3949 147.336 93.4783 147.347C93.5617 147.357 93.6463 147.341 93.7198 147.3Z" fill="black"/>
</g>
<path d="M108.791 33.7341C112.262 34.1275 115.565 35.6203 118.981 36.4287C119.835 36.6964 120.745 36.7318 121.616 36.5311C122.942 36.1215 124.02 34.7311 125.388 34.7742C126.234 34.7742 127.005 35.3778 127.684 35.9329C128.809 36.7863 129.866 37.725 130.847 38.7406C133.202 41.3005 134.668 44.7496 136.818 47.5304C138.968 50.3112 142.357 52.4776 145.413 51.2004C143.338 59.2841 136.527 65.4655 129.166 65.9667C126.229 66.1661 123.238 65.5571 120.377 66.4194C119.668 66.7085 118.92 66.8901 118.157 66.9583C116.54 66.9583 115.204 65.4547 114.18 63.9943C111.788 60.556 109.869 56.6542 107.175 53.5231C106.286 52.4884 105.235 51.5022 103.979 51.3136C102.724 51.1249 101.565 51.7231 100.444 52.3052C98.5961 53.2644 96.7047 54.256 95.2714 55.8943C93.838 57.5327 92.9327 59.9847 93.5254 62.2051C93.8434 63.4015 94.5762 64.4793 94.6032 65.735C94.6032 67.729 92.868 69.1894 92.5178 71.1241C92.4406 71.9409 92.4118 72.7615 92.4315 73.5816C92.2753 76.2438 90.5401 78.4318 88.7188 80.0971C88.0129 80.7492 87.2261 81.4444 87.0213 82.4522C86.8812 83.1366 87.0213 83.8641 86.9297 84.5593C86.6657 86.2892 84.9413 87.1623 83.4163 87.3886C81.6353 87.6497 79.8168 87.434 78.1463 86.7635C80.3017 85.7557 81.5896 82.8833 81.0938 80.2965C80.4149 76.7342 76.8368 74.1798 77.1386 70.5475C77.3073 69.4352 77.6415 68.3544 78.1301 67.3409C78.9109 65.3813 79.4782 63.3432 79.8221 61.262C80.1747 59.6601 80.1396 57.9972 79.7197 56.4117C79.2617 55.0159 78.3295 53.9058 77.532 52.7255C76.4519 51.121 75.5996 49.3745 74.9993 47.5358C74.7818 46.9923 74.6986 46.4045 74.7568 45.822C74.9306 45.1349 75.3059 44.5156 75.8345 44.0436C77.796 41.9903 79.8976 39.8508 82.5057 39.258C83.7518 39.0504 85.0193 39.0015 86.2777 39.1125C88.4748 39.1824 90.6741 39.0887 92.8572 38.8323C94.6571 38.6221 97.707 38.649 99.2266 37.4742C100.644 36.3963 101.447 35.0221 103.198 34.3323C104.985 33.6779 106.906 33.4725 108.791 33.7341Z" fill="#5D928B"/>
<path d="M177.132 126.908C177.787 125.193 180.213 125.193 180.868 126.908L181.79 129.321C182.073 130.061 182.766 130.564 183.557 130.604L186.136 130.736C187.969 130.829 188.719 133.136 187.291 134.289L185.281 135.911C184.665 136.409 184.4 137.223 184.606 137.988L185.279 140.482C185.756 142.254 183.794 143.68 182.256 142.678L180.092 141.268C179.428 140.836 178.572 140.836 177.908 141.268L175.744 142.678C174.206 143.68 172.244 142.254 172.721 140.482L173.394 137.988C173.6 137.223 173.335 136.409 172.719 135.911L170.709 134.289C169.281 133.136 170.031 130.829 171.864 130.736L174.443 130.604C175.234 130.564 175.927 130.061 176.21 129.321L177.132 126.908Z" fill="white"/>
<path d="M48.1317 194.908C48.7869 193.193 51.2131 193.193 51.8683 194.908L52.0388 195.355C52.3216 196.095 53.0144 196.598 53.8055 196.638L54.2828 196.663C56.1162 196.756 56.8659 199.063 55.4374 200.216L55.0656 200.516C54.4492 201.014 54.1846 201.828 54.3908 202.593L54.5152 203.055C54.9931 204.827 53.0303 206.253 51.4922 205.251L51.0919 204.99C50.4282 204.558 49.5718 204.558 48.9081 204.99L48.5078 205.251C46.9697 206.253 45.0069 204.827 45.4848 203.055L45.6092 202.593C45.8154 201.828 45.5508 201.014 44.9344 200.516L44.5626 200.216C43.1341 199.063 43.8838 196.756 45.7172 196.663L46.1945 196.638C46.9856 196.598 47.6784 196.095 47.9612 195.355L48.1317 194.908Z" fill="white"/>
<path d="M177.397 38.9045C177.784 37.8924 179.216 37.8924 179.603 38.9045C179.77 39.3413 180.178 39.6383 180.645 39.6621C181.727 39.7171 182.17 41.0789 181.327 41.7595C180.963 42.0531 180.807 42.5338 180.929 42.9852C181.211 44.0314 180.052 44.873 179.144 44.2815C178.753 44.0262 178.247 44.0262 177.856 44.2815C176.948 44.873 175.789 44.0314 176.071 42.9852C176.193 42.5338 176.037 42.0531 175.673 41.7595C174.83 41.0789 175.273 39.7171 176.355 39.6621C176.822 39.6383 177.23 39.3413 177.397 38.9045Z" fill="white"/>
<circle cx="46.5" cy="122.519" r="3.5" fill="white"/>
<circle cx="91.3086" cy="24.5789" r="4.5" fill="white"/>
<defs>
<linearGradient id="paint0_linear" x1="35.6648" y1="19.0475" x2="83.6146" y2="217.355" gradientUnits="userSpaceOnUse">
<stop offset="0.255208" stop-color="#14F0C8"/>
<stop offset="1" stop-color="#30C1B0" stop-opacity="0.9"/>
</linearGradient>
<linearGradient id="paint1_linear" x1="223.248" y1="205.854" x2="223.248" y2="205.828" gradientUnits="userSpaceOnUse">
<stop stop-color="#808080" stop-opacity="0.25"/>
<stop offset="0.54" stop-color="#808080" stop-opacity="0.12"/>
<stop offset="1" stop-color="#808080" stop-opacity="0.1"/>
</linearGradient>
<linearGradient id="paint2_linear" x1="34717.4" y1="108919" x2="34717.4" y2="48806.5" gradientUnits="userSpaceOnUse">
<stop stop-color="#808080" stop-opacity="0.25"/>
<stop offset="0.54" stop-color="#808080" stop-opacity="0.12"/>
<stop offset="1" stop-color="#808080" stop-opacity="0.1"/>
</linearGradient>
</defs>
</svg>
