<svg width="26" height="32" viewBox="0 0 26 32" fill="none" xmlns="http://www.w3.org/2000/svg">
<path d="M22 18V19C22 20.1 21.1 21 20 21H6C4.89 21 4 20.1 4 19V5C4 3.9 4.89 3 6 3H20C21.1 3 22 3.9 22 5V6H13C11.89 6 11 6.9 11 8V16C11 17.1 11.89 18 13 18H22ZM13 16H23V8H13V16ZM17 13.5C16.17 13.5 15.5 12.83 15.5 12C15.5 11.17 16.17 10.5 17 10.5C17.83 10.5 18.5 11.17 18.5 12C18.5 12.83 17.83 13.5 17 13.5Z" fill="#C4C4C4"/>
<path d="M8.6 24.4L6.712 30H6.088L4.448 25.224L2.8 30H2.184L0.296 24.4H0.904L2.52 29.216L4.192 24.4H4.744L6.392 29.24L8.032 24.4H8.6ZM10.7171 25.76C11.2665 25.76 11.6878 25.8987 11.9811 26.176C12.2745 26.448 12.4211 26.8533 12.4211 27.392V30H11.8771V29.344C11.7491 29.5627 11.5598 29.7333 11.3091 29.856C11.0638 29.9787 10.7705 30.04 10.4291 30.04C9.95979 30.04 9.58646 29.928 9.30913 29.704C9.03179 29.48 8.89313 29.184 8.89313 28.816C8.89313 28.4587 9.02113 28.1707 9.27713 27.952C9.53846 27.7333 9.95179 27.624 10.5171 27.624H11.8531V27.368C11.8531 27.0053 11.7518 26.7307 11.5491 26.544C11.3465 26.352 11.0505 26.256 10.6611 26.256C10.3945 26.256 10.1385 26.3013 9.89313 26.392C9.64779 26.4773 9.43713 26.5973 9.26113 26.752L9.00513 26.328C9.21846 26.1467 9.47446 26.008 9.77313 25.912C10.0718 25.8107 10.3865 25.76 10.7171 25.76ZM10.5171 29.592C10.8371 29.592 11.1118 29.52 11.3411 29.376C11.5705 29.2267 11.7411 29.0133 11.8531 28.736V28.048H10.5331C9.81313 28.048 9.45312 28.2987 9.45312 28.8C9.45312 29.0453 9.54646 29.24 9.73313 29.384C9.91979 29.5227 10.1811 29.592 10.5171 29.592ZM13.9639 24.064H14.5319V30H13.9639V24.064ZM16.1123 24.064H16.6803V30H16.1123V24.064ZM21.9248 28.072H18.4048C18.4368 28.5093 18.6048 28.864 18.9088 29.136C19.2128 29.4027 19.5968 29.536 20.0608 29.536C20.3221 29.536 20.5621 29.4907 20.7808 29.4C20.9994 29.304 21.1888 29.1653 21.3488 28.984L21.6688 29.352C21.4821 29.576 21.2474 29.7467 20.9648 29.864C20.6874 29.9813 20.3808 30.04 20.0448 30.04C19.6128 30.04 19.2288 29.9493 18.8928 29.768C18.5621 29.5813 18.3034 29.3253 18.1168 29C17.9301 28.6747 17.8368 28.3067 17.8368 27.896C17.8368 27.4853 17.9248 27.1173 18.1008 26.792C18.2821 26.4667 18.5274 26.2133 18.8368 26.032C19.1514 25.8507 19.5034 25.76 19.8928 25.76C20.2821 25.76 20.6314 25.8507 20.9408 26.032C21.2501 26.2133 21.4928 26.4667 21.6688 26.792C21.8448 27.112 21.9328 27.48 21.9328 27.896L21.9248 28.072ZM19.8928 26.248C19.4874 26.248 19.1461 26.3787 18.8688 26.64C18.5968 26.896 18.4421 27.232 18.4048 27.648H21.3888C21.3514 27.232 21.1941 26.896 20.9168 26.64C20.6448 26.3787 20.3034 26.248 19.8928 26.248ZM25.3049 29.744C25.1982 29.84 25.0649 29.9147 24.9049 29.968C24.7502 30.016 24.5875 30.04 24.4169 30.04C24.0222 30.04 23.7182 29.9333 23.5049 29.72C23.2915 29.5067 23.1849 29.2053 23.1849 28.816V26.272H22.4329V25.792H23.1849V24.872H23.7529V25.792H25.0329V26.272H23.7529V28.784C23.7529 29.0347 23.8142 29.2267 23.9369 29.36C24.0649 29.488 24.2462 29.552 24.4809 29.552C24.5982 29.552 24.7102 29.5333 24.8169 29.496C24.9289 29.4587 25.0249 29.4053 25.1049 29.336L25.3049 29.744Z" fill="#C4C4C4"/>
</svg>
